<svg width="39" height="44" viewBox="0 0 39 44" fill="none" xmlns="http://www.w3.org/2000/svg">
<path d="M25.168 15.2434C32.4702 10.9327 36.6295 11.4905 38.1489 16.8663C37.0713 17.2286 36.0153 17.5908 34.9162 17.9169C33.9536 18.2103 33.7489 18.75 33.7992 19.7933C33.9069 22.1298 34.0254 24.5243 33.6555 26.8173C32.7611 32.3561 29.3453 36.0366 24.1012 37.4421C20.3406 38.4528 16.3464 38.786 12.4349 38.9527C9.16995 39.0939 6.37911 39.5613 4.85617 43.1874C3.17519 40.6516 1.62351 38.3007 0 35.8192C1.90367 34.497 3.67802 33.182 5.55296 32.0265C5.96961 31.7656 6.74907 31.9939 7.32735 32.1315C7.90564 32.2692 8.54139 32.588 9.25257 32.7365C4.89208 28.3605 2.0186 23.2637 1.46545 17.0257C0.91231 10.7878 2.68671 5.26349 6.70957 0C8.86467 6.79218 11.9285 12.5701 18.2034 15.3014C17.8119 14.787 17.1905 13.9865 16.5835 13.175C15.9765 12.3636 15.373 11.534 14.7552 10.719C14.062 9.80608 14.0692 8.92946 14.608 7.88256C16.2603 4.68027 18.7709 1.91992 20.9188 0.945466C21.7198 4.31439 22.4597 7.75936 23.3792 11.1573C23.7743 12.5302 24.5287 13.7944 25.168 15.2434Z" fill="#273037"/>
</svg>
