<svg width="61" height="42" viewBox="0 0 61 42" fill="none" xmlns="http://www.w3.org/2000/svg">
<path d="M0 33.9067C6.30955 31.2233 12.9234 30.2689 19.4937 29.0098C25.0318 27.9489 30.4431 26.1649 35.8688 24.5534C37.3394 24.1203 38.6578 23.1622 39.9364 22.5051L16.5635 28.3784C16.4947 28.1655 16.4222 27.9526 16.3534 27.7397C16.7156 27.4901 17.0778 27.2185 17.44 27.0056C27.2919 21.3525 36.2745 14.668 43.0405 5.25968C44.3408 3.45731 46.3003 2.03304 48.2308 0.854711C50.4873 -0.540196 52.9104 -0.162089 54.9967 1.5118C56.9759 3.07037 58.8058 4.81436 60.4623 6.72067C59.3757 6.72067 58.2565 6.80141 57.1663 6.7023C55.6632 6.56648 54.6997 7.26763 54.2035 8.58178C53.2545 11.0853 52.4287 13.6365 51.5051 16.151C50.212 19.6896 49.1544 23.3568 47.4883 26.7082C45.6702 30.4181 42.5795 33.3286 38.7954 34.8941C37.5857 35.4117 36.807 37.0305 35.9377 38.2199C35.8399 38.3557 36.3289 39.1486 36.7019 39.3762C37.611 39.9305 38.6107 40.3342 40.0595 41.028H32.2142C32.5223 40.6463 32.8538 40.2847 33.2067 39.9452C34.1267 39.178 34.6555 38.5025 33.3914 37.482C32.906 37.0893 32.7865 36.2376 32.5511 35.7054C27.8968 34.5784 23.2642 33.2055 18.5375 32.4236C16.1687 32.0309 13.6224 32.6953 11.1595 32.9119C7.4324 33.2129 3.71619 33.5653 0 33.9067Z" fill="#273037"/>
</svg>
