<svg width="39" height="39" viewBox="0 0 39 39" fill="none" xmlns="http://www.w3.org/2000/svg">
<path d="M37.7149 38.8687C35.5239 34.8091 33.6753 31.0829 31.5384 27.538C29.9312 24.8631 27.9348 22.4237 26.133 19.8683C25.524 19.002 24.8033 18.8498 24.0286 19.5421C21.9781 21.3544 19.9277 23.1957 17.9565 25.1059C17.2358 25.7946 16.7673 26.7261 15.9313 27.9005C15.416 25.095 14.0142 23.4458 11.0665 23.0979C12.6413 21.9126 13.9962 21.1079 15.0701 20.0278C16.5836 18.5018 17.8989 16.7656 19.2826 15.1164C20.1079 14.1269 19.8448 13.3911 18.8754 12.5792C14.0215 8.44706 8.48278 5.44949 2.84321 2.60777C2.05403 2.21268 1.25764 1.82848 0 1.21229C10.0107 -0.636272 19.2971 -0.868249 28.1078 4.112C28.9715 4.53805 29.9354 4.71613 30.8933 4.62667C34.1365 4.40195 34.5941 4.89131 34.2122 7.92513C34.0264 8.96918 34.2264 10.0455 34.7743 10.9517C38.7563 17.7588 39.322 25.2037 38.6013 32.8517C38.4103 34.7365 38.0464 36.6323 37.7149 38.8687Z" fill="#273037"/>
</svg>
