<svg width="34" height="58" viewBox="0 0 34 58" fill="none" xmlns="http://www.w3.org/2000/svg">
<path d="M26.5576 0.323443C25.0074 2.99332 23.4571 5.63029 21.9429 8.28554C20.6197 10.6043 21.0271 11.9941 23.0245 13.7716C29.514 19.5539 33.3608 26.6638 33.0976 35.6463C32.9914 37.2245 32.5785 38.7658 31.8827 40.1815C31.0294 38.0382 30.1761 35.895 29.3229 33.7518L28.9624 33.814C28.7821 35.6427 28.6487 37.4713 28.418 39.3C27.9457 43.0232 26.9001 46.5709 24.91 49.7601C24.225 50.8573 23.2985 51.8009 22.325 53.0078L23.9618 55.2022L20.7171 57.4405L17.5733 55.1584L19.4228 52.6677C17.6201 51.5997 15.904 51.7131 13.9139 52.5726L15.7886 55.173L12.3708 57.5832C11.7579 56.8846 11.3685 55.045 8.89892 55.9996C9.87595 54.6207 10.5357 53.6844 10.9179 53.1395C9.7137 51.362 8.49151 49.8881 7.62624 48.2203C5.25035 43.6486 4.59058 38.649 4.11108 33.386C3.17009 35.65 2.22911 37.9139 1.22684 40.3607C-0.453225 36.2717 -0.251326 32.3144 0.891552 28.4084C2.65454 22.3554 5.81639 17.2351 10.7484 13.2595C11.4911 12.6597 11.9237 11.4602 12.1581 10.458C12.4573 9.17064 12.4537 7.79911 12.5186 6.46417C12.6989 1.90344 16.023 -0.759132 20.4503 0.191783C21.4886 0.414882 22.4945 0.981805 23.5184 1.00009C24.5423 1.01838 25.595 0.561172 26.5576 0.323443Z" fill="#273037"/>
</svg>
