<svg width="565" height="42" viewBox="0 0 565 42" fill="none" xmlns="http://www.w3.org/2000/svg">
<path d="M50.6464 26.2502V24.3242H54.7144V37.0322H52.5544V26.2502H50.6464Z" fill="white"/>
<path d="M154.098 26.2502V24.3242H158.166V37.0322H156.006V26.2502H154.098ZM160.319 30.5882C160.319 32.6162 160.679 34.2062 161.399 35.3582C162.119 36.4982 163.319 37.0682 164.999 37.0682C166.679 37.0682 167.879 36.4922 168.599 35.3402C169.319 34.1882 169.679 32.6042 169.679 30.5882C169.679 28.5842 169.319 27.0122 168.599 25.8722C167.879 24.7202 166.679 24.1442 164.999 24.1442C163.319 24.1442 162.119 24.7142 161.399 25.8542C160.679 26.9942 160.319 28.5722 160.319 30.5882ZM167.627 30.5882C167.627 32.0522 167.447 33.1742 167.087 33.9542C166.727 34.7342 166.031 35.1242 164.999 35.1242C163.955 35.1242 163.253 34.7342 162.893 33.9542C162.533 33.1742 162.353 32.0522 162.353 30.5882C162.353 29.1362 162.533 28.0262 162.893 27.2582C163.253 26.4902 163.955 26.1062 164.999 26.1062C166.031 26.1062 166.727 26.4962 167.087 27.2762C167.447 28.0442 167.627 29.1482 167.627 30.5882ZM171.534 30.5882C171.534 32.6162 171.894 34.2062 172.614 35.3582C173.334 36.4982 174.534 37.0682 176.214 37.0682C177.894 37.0682 179.094 36.4922 179.814 35.3402C180.534 34.1882 180.894 32.6042 180.894 30.5882C180.894 28.5842 180.534 27.0122 179.814 25.8722C179.094 24.7202 177.894 24.1442 176.214 24.1442C174.534 24.1442 173.334 24.7142 172.614 25.8542C171.894 26.9942 171.534 28.5722 171.534 30.5882ZM178.842 30.5882C178.842 32.0522 178.662 33.1742 178.302 33.9542C177.942 34.7342 177.246 35.1242 176.214 35.1242C175.17 35.1242 174.468 34.7342 174.108 33.9542C173.748 33.1742 173.568 32.0522 173.568 30.5882C173.568 29.1362 173.748 28.0262 174.108 27.2582C174.468 26.4902 175.17 26.1062 176.214 26.1062C177.246 26.1062 177.942 26.4962 178.302 27.2762C178.662 28.0442 178.842 29.1482 178.842 30.5882Z" fill="white"/>
<path d="M262.695 26.2502V24.3242H266.763V37.0322H264.603V26.2502H262.695ZM268.917 30.5882C268.917 32.6162 269.277 34.2062 269.997 35.3582C270.717 36.4982 271.917 37.0682 273.597 37.0682C275.277 37.0682 276.477 36.4922 277.197 35.3402C277.917 34.1882 278.277 32.6042 278.277 30.5882C278.277 28.5842 277.917 27.0122 277.197 25.8722C276.477 24.7202 275.277 24.1442 273.597 24.1442C271.917 24.1442 270.717 24.7142 269.997 25.8542C269.277 26.9942 268.917 28.5722 268.917 30.5882ZM276.225 30.5882C276.225 32.0522 276.045 33.1742 275.685 33.9542C275.325 34.7342 274.629 35.1242 273.597 35.1242C272.553 35.1242 271.851 34.7342 271.491 33.9542C271.131 33.1742 270.951 32.0522 270.951 30.5882C270.951 29.1362 271.131 28.0262 271.491 27.2582C271.851 26.4902 272.553 26.1062 273.597 26.1062C274.629 26.1062 275.325 26.4962 275.685 27.2762C276.045 28.0442 276.225 29.1482 276.225 30.5882ZM280.131 30.5882C280.131 32.6162 280.491 34.2062 281.211 35.3582C281.931 36.4982 283.131 37.0682 284.811 37.0682C286.491 37.0682 287.691 36.4922 288.411 35.3402C289.131 34.1882 289.491 32.6042 289.491 30.5882C289.491 28.5842 289.131 27.0122 288.411 25.8722C287.691 24.7202 286.491 24.1442 284.811 24.1442C283.131 24.1442 281.931 24.7142 281.211 25.8542C280.491 26.9942 280.131 28.5722 280.131 30.5882ZM287.439 30.5882C287.439 32.0522 287.259 33.1742 286.899 33.9542C286.539 34.7342 285.843 35.1242 284.811 35.1242C283.767 35.1242 283.065 34.7342 282.705 33.9542C282.345 33.1742 282.165 32.0522 282.165 30.5882C282.165 29.1362 282.345 28.0262 282.705 27.2582C283.065 26.4902 283.767 26.1062 284.811 26.1062C285.843 26.1062 286.539 26.4962 286.899 27.2762C287.259 28.0442 287.439 29.1482 287.439 30.5882ZM291.346 30.5882C291.346 32.6162 291.706 34.2062 292.426 35.3582C293.146 36.4982 294.346 37.0682 296.026 37.0682C297.706 37.0682 298.906 36.4922 299.626 35.3402C300.346 34.1882 300.706 32.6042 300.706 30.5882C300.706 28.5842 300.346 27.0122 299.626 25.8722C298.906 24.7202 297.706 24.1442 296.026 24.1442C294.346 24.1442 293.146 24.7142 292.426 25.8542C291.706 26.9942 291.346 28.5722 291.346 30.5882ZM298.654 30.5882C298.654 32.0522 298.474 33.1742 298.114 33.9542C297.754 34.7342 297.058 35.1242 296.026 35.1242C294.982 35.1242 294.28 34.7342 293.92 33.9542C293.56 33.1742 293.38 32.0522 293.38 30.5882C293.38 29.1362 293.56 28.0262 293.92 27.2582C294.28 26.4902 294.982 26.1062 296.026 26.1062C297.058 26.1062 297.754 26.4962 298.114 27.2762C298.474 28.0442 298.654 29.1482 298.654 30.5882Z" fill="white"/>
<path d="M370.014 26.2502V24.3242H374.082V37.0322H371.922V26.2502H370.014ZM376.235 30.5882C376.235 32.6162 376.595 34.2062 377.315 35.3582C378.035 36.4982 379.235 37.0682 380.915 37.0682C382.595 37.0682 383.795 36.4922 384.515 35.3402C385.235 34.1882 385.595 32.6042 385.595 30.5882C385.595 28.5842 385.235 27.0122 384.515 25.8722C383.795 24.7202 382.595 24.1442 380.915 24.1442C379.235 24.1442 378.035 24.7142 377.315 25.8542C376.595 26.9942 376.235 28.5722 376.235 30.5882ZM383.543 30.5882C383.543 32.0522 383.363 33.1742 383.003 33.9542C382.643 34.7342 381.947 35.1242 380.915 35.1242C379.871 35.1242 379.169 34.7342 378.809 33.9542C378.449 33.1742 378.269 32.0522 378.269 30.5882C378.269 29.1362 378.449 28.0262 378.809 27.2582C379.169 26.4902 379.871 26.1062 380.915 26.1062C381.947 26.1062 382.643 26.4962 383.003 27.2762C383.363 28.0442 383.543 29.1482 383.543 30.5882ZM389.016 35.6282C389.232 36.1802 389.34 36.7502 389.34 37.3382C389.34 38.0102 389.166 38.5562 388.818 38.9762C388.47 39.4082 387.942 39.6242 387.234 39.6242V38.7962C387.534 38.7962 387.756 38.7182 387.9 38.5622C388.044 38.4062 388.116 38.1422 388.116 37.7702V37.6082H387.072V35.6282H389.016ZM390.931 30.5882C390.931 32.6162 391.291 34.2062 392.011 35.3582C392.731 36.4982 393.931 37.0682 395.611 37.0682C397.291 37.0682 398.491 36.4922 399.211 35.3402C399.931 34.1882 400.291 32.6042 400.291 30.5882C400.291 28.5842 399.931 27.0122 399.211 25.8722C398.491 24.7202 397.291 24.1442 395.611 24.1442C393.931 24.1442 392.731 24.7142 392.011 25.8542C391.291 26.9942 390.931 28.5722 390.931 30.5882ZM398.239 30.5882C398.239 32.0522 398.059 33.1742 397.699 33.9542C397.339 34.7342 396.643 35.1242 395.611 35.1242C394.567 35.1242 393.865 34.7342 393.505 33.9542C393.145 33.1742 392.965 32.0522 392.965 30.5882C392.965 29.1362 393.145 28.0262 393.505 27.2582C393.865 26.4902 394.567 26.1062 395.611 26.1062C396.643 26.1062 397.339 26.4962 397.699 27.2762C398.059 28.0442 398.239 29.1482 398.239 30.5882ZM402.146 30.5882C402.146 32.6162 402.506 34.2062 403.226 35.3582C403.946 36.4982 405.146 37.0682 406.826 37.0682C408.506 37.0682 409.706 36.4922 410.426 35.3402C411.146 34.1882 411.506 32.6042 411.506 30.5882C411.506 28.5842 411.146 27.0122 410.426 25.8722C409.706 24.7202 408.506 24.1442 406.826 24.1442C405.146 24.1442 403.946 24.7142 403.226 25.8542C402.506 26.9942 402.146 28.5722 402.146 30.5882ZM409.454 30.5882C409.454 32.0522 409.274 33.1742 408.914 33.9542C408.554 34.7342 407.858 35.1242 406.826 35.1242C405.782 35.1242 405.08 34.7342 404.72 33.9542C404.36 33.1742 404.18 32.0522 404.18 30.5882C404.18 29.1362 404.36 28.0262 404.72 27.2582C405.08 26.4902 405.782 26.1062 406.826 26.1062C407.858 26.1062 408.554 26.4962 408.914 27.2762C409.274 28.0442 409.454 29.1482 409.454 30.5882ZM413.36 30.5882C413.36 32.6162 413.72 34.2062 414.44 35.3582C415.16 36.4982 416.36 37.0682 418.04 37.0682C419.72 37.0682 420.92 36.4922 421.64 35.3402C422.36 34.1882 422.72 32.6042 422.72 30.5882C422.72 28.5842 422.36 27.0122 421.64 25.8722C420.92 24.7202 419.72 24.1442 418.04 24.1442C416.36 24.1442 415.16 24.7142 414.44 25.8542C413.72 26.9942 413.36 28.5722 413.36 30.5882ZM420.668 30.5882C420.668 32.0522 420.488 33.1742 420.128 33.9542C419.768 34.7342 419.072 35.1242 418.04 35.1242C416.996 35.1242 416.294 34.7342 415.934 33.9542C415.574 33.1742 415.394 32.0522 415.394 30.5882C415.394 29.1362 415.574 28.0262 415.934 27.2582C416.294 26.4902 416.996 26.1062 418.04 26.1062C419.072 26.1062 419.768 26.4962 420.128 27.2762C420.488 28.0442 420.668 29.1482 420.668 30.5882Z" fill="white"/>
<path d="M478.149 26.2502V24.3242H482.217V37.0322H480.057V26.2502H478.149ZM484.37 30.5882C484.37 32.6162 484.73 34.2062 485.45 35.3582C486.17 36.4982 487.37 37.0682 489.05 37.0682C490.73 37.0682 491.93 36.4922 492.65 35.3402C493.37 34.1882 493.73 32.6042 493.73 30.5882C493.73 28.5842 493.37 27.0122 492.65 25.8722C491.93 24.7202 490.73 24.1442 489.05 24.1442C487.37 24.1442 486.17 24.7142 485.45 25.8542C484.73 26.9942 484.37 28.5722 484.37 30.5882ZM491.678 30.5882C491.678 32.0522 491.498 33.1742 491.138 33.9542C490.778 34.7342 490.082 35.1242 489.05 35.1242C488.006 35.1242 487.304 34.7342 486.944 33.9542C486.584 33.1742 486.404 32.0522 486.404 30.5882C486.404 29.1362 486.584 28.0262 486.944 27.2582C487.304 26.4902 488.006 26.1062 489.05 26.1062C490.082 26.1062 490.778 26.4962 491.138 27.2762C491.498 28.0442 491.678 29.1482 491.678 30.5882ZM495.585 30.5882C495.585 32.6162 495.945 34.2062 496.665 35.3582C497.385 36.4982 498.585 37.0682 500.265 37.0682C501.945 37.0682 503.145 36.4922 503.865 35.3402C504.585 34.1882 504.945 32.6042 504.945 30.5882C504.945 28.5842 504.585 27.0122 503.865 25.8722C503.145 24.7202 501.945 24.1442 500.265 24.1442C498.585 24.1442 497.385 24.7142 496.665 25.8542C495.945 26.9942 495.585 28.5722 495.585 30.5882ZM502.893 30.5882C502.893 32.0522 502.713 33.1742 502.353 33.9542C501.993 34.7342 501.297 35.1242 500.265 35.1242C499.221 35.1242 498.519 34.7342 498.159 33.9542C497.799 33.1742 497.619 32.0522 497.619 30.5882C497.619 29.1362 497.799 28.0262 498.159 27.2582C498.519 26.4902 499.221 26.1062 500.265 26.1062C501.297 26.1062 501.993 26.4962 502.353 27.2762C502.713 28.0442 502.893 29.1482 502.893 30.5882ZM508.366 35.6282C508.582 36.1802 508.69 36.7502 508.69 37.3382C508.69 38.0102 508.516 38.5562 508.168 38.9762C507.82 39.4082 507.292 39.6242 506.584 39.6242V38.7962C506.884 38.7962 507.106 38.7182 507.25 38.5622C507.394 38.4062 507.466 38.1422 507.466 37.7702V37.6082H506.422V35.6282H508.366ZM510.28 30.5882C510.28 32.6162 510.64 34.2062 511.36 35.3582C512.08 36.4982 513.28 37.0682 514.96 37.0682C516.64 37.0682 517.84 36.4922 518.56 35.3402C519.28 34.1882 519.64 32.6042 519.64 30.5882C519.64 28.5842 519.28 27.0122 518.56 25.8722C517.84 24.7202 516.64 24.1442 514.96 24.1442C513.28 24.1442 512.08 24.7142 511.36 25.8542C510.64 26.9942 510.28 28.5722 510.28 30.5882ZM517.588 30.5882C517.588 32.0522 517.408 33.1742 517.048 33.9542C516.688 34.7342 515.992 35.1242 514.96 35.1242C513.916 35.1242 513.214 34.7342 512.854 33.9542C512.494 33.1742 512.314 32.0522 512.314 30.5882C512.314 29.1362 512.494 28.0262 512.854 27.2582C513.214 26.4902 513.916 26.1062 514.96 26.1062C515.992 26.1062 516.688 26.4962 517.048 27.2762C517.408 28.0442 517.588 29.1482 517.588 30.5882ZM521.495 30.5882C521.495 32.6162 521.855 34.2062 522.575 35.3582C523.295 36.4982 524.495 37.0682 526.175 37.0682C527.855 37.0682 529.055 36.4922 529.775 35.3402C530.495 34.1882 530.855 32.6042 530.855 30.5882C530.855 28.5842 530.495 27.0122 529.775 25.8722C529.055 24.7202 527.855 24.1442 526.175 24.1442C524.495 24.1442 523.295 24.7142 522.575 25.8542C521.855 26.9942 521.495 28.5722 521.495 30.5882ZM528.803 30.5882C528.803 32.0522 528.623 33.1742 528.263 33.9542C527.903 34.7342 527.207 35.1242 526.175 35.1242C525.131 35.1242 524.429 34.7342 524.069 33.9542C523.709 33.1742 523.529 32.0522 523.529 30.5882C523.529 29.1362 523.709 28.0262 524.069 27.2582C524.429 26.4902 525.131 26.1062 526.175 26.1062C527.207 26.1062 527.903 26.4962 528.263 27.2762C528.623 28.0442 528.803 29.1482 528.803 30.5882ZM532.71 30.5882C532.71 32.6162 533.07 34.2062 533.79 35.3582C534.51 36.4982 535.71 37.0682 537.39 37.0682C539.07 37.0682 540.27 36.4922 540.99 35.3402C541.71 34.1882 542.07 32.6042 542.07 30.5882C542.07 28.5842 541.71 27.0122 540.99 25.8722C540.27 24.7202 539.07 24.1442 537.39 24.1442C535.71 24.1442 534.51 24.7142 533.79 25.8542C533.07 26.9942 532.71 28.5722 532.71 30.5882ZM540.018 30.5882C540.018 32.0522 539.838 33.1742 539.478 33.9542C539.118 34.7342 538.422 35.1242 537.39 35.1242C536.346 35.1242 535.644 34.7342 535.284 33.9542C534.924 33.1742 534.744 32.0522 534.744 30.5882C534.744 29.1362 534.924 28.0262 535.284 27.2582C535.644 26.4902 536.346 26.1062 537.39 26.1062C538.422 26.1062 539.118 26.4962 539.478 27.2762C539.838 28.0442 540.018 29.1482 540.018 30.5882Z" fill="white"/>
<rect y="0.386963" width="107.269" height="11.0968" fill="#85C5C8"/>
<rect x="228.409" y="0.386963" width="107.269" height="11.0968" fill="#C79D5E"/>
<rect x="114.667" y="0.386963" width="106.344" height="11.0968" fill="#AFCB83"/>
<rect x="343.075" y="0.386963" width="106.344" height="11.0968" fill="#D68A9C"/>
<rect x="456.817" y="0.386963" width="107.269" height="11.0968" fill="#A89CF6"/>
</svg>
