<?xml version="1.0" encoding="utf-8"?>
<!-- Generator: Adobe Illustrator 26.5.0, SVG Export Plug-In . SVG Version: 6.00 Build 0)  -->
<svg version="1.1" id="Layer_1" xmlns="http://www.w3.org/2000/svg" xmlns:xlink="http://www.w3.org/1999/xlink" x="0px" y="0px"
	 viewBox="0 0 351.1759 351.01566" style="enable-background:new 0 0 351.1759 351.01566;" xml:space="preserve">
<style type="text/css">
	.st0{fill:#292929;}
	.st1{fill:#FFFFFF;}
</style>
<g>
	<circle class="st0" cx="175.58795" cy="175.50783" r="167.61008"/>
	<g>
		<path class="st1" d="M211.43962,70.21503c-5.07176-3.94866-14.26331,4.08949-23.46198,9.29494
			c-10.98137,6.21445-19.96613,4.27846-27.57108,14.69472c-1.65079,2.26223-2.78813,4.77048-3.42813,7.39816
			c4.06276,1.74169,7.8278,3.67769,11.27017,5.79731c11.12576,7.66734,17.43114,17.32774,21.04645,25.36053
			c4.48346-1.06604,8.5052-3.47624,11.41811-7.18602c9.01329-11.48051,4.79369-18.38309,8.12195-30.5553
			C211.62146,84.82596,216.51317,74.16369,211.43962,70.21503z"/>
		<path class="st1" d="M295.16901,115.29034c-4.1091-2.57776-8.28772-5.04501-12.41641-7.59068
			c-3.02527-1.8647-5.77237-4.28381-9.06143-5.59943c-2.10535-0.84142-4.99152-0.71842-5.31421,1.65434
			c-0.53479,3.92191,4.51022,7.40529,6.16101,8.39646c1.9324,1.15875,8.9259,6.31073,10.78528,7.77431
			c-0.94128,0.73625-11.67484,8.21821-16.41147,11.46093c-2.81488,2.21053,0.17825,9.44826,4.16083,7.05054
			c7.24838-4.19824,13.84433-8.65497,23.22842-15.77325C298.49908,120.56711,297.79135,116.93577,295.16901,115.29034z"/>
		<path class="st1" d="M241.99315,100.54572c-6.77422,3.38712-16.1904,10.09538-18.72716,12.85854
			c-2.87724,3.13575-3.91301,6.39451-0.16936,9.24682c2.5136,1.9146,10.34317,7.93297,14.40771,10.30394
			c1.29066,0.75407,5.73668,4.67065,8.76726,3.06624c2.80595-1.48499,1.96097-4.10019-0.43854-6.56744
			c-2.05901-1.79695-12.70523-9.16659-15.4274-11.616c1.09279-0.89314,11.59105-7.90089,15.32578-10.66584
			c0.66852-0.49558,4.10555-3.23914,2.32285-6.09145C247.17009,99.66685,244.1716,99.4565,241.99315,100.54572z"/>
		<path class="st1" d="M259.57941,95.96063c-0.70239,3.74722-1.28714,7.52831-1.9895,11.28265
			c-1.75951,9.38943-3.6349,18.75746-5.31064,28.16293c-0.25848,1.44576-0.76479,3.45663-1.2354,5.47285
			c-0.65779,2.80952,3.10008,4.38364,4.66173,1.9574c0.55444-0.86104,0.95731-1.79874,1.15161-2.71503
			c2.24619-10.58562,4.59402-21.15163,6.54428-31.79785c0.45636-2.49755,2.38699-12.14012,1.4101-15.08691
			C263.84894,90.33268,260.35486,91.81054,259.57941,95.96063z"/>
		<path class="st1" d="M55.10484,150.22751l0.09091-0.1337h-0.00177C55.16366,150.13837,55.13515,150.18294,55.10484,150.22751z"/>
		<path class="st1" d="M172.98344,241.14825c0.03922-0.00179,0.07843-0.00357,0.11765-0.00536
			c-0.04813,0.00179-0.09625,0.00357-0.14261,0.00536H172.98344z"/>
		<path class="st1" d="M170.94048,241.0502c0.00357,0.00179,0.00891,0.00179,0.01427,0.00357c0.00357,0,0.00713,0,0.0107,0.00179
			c0.01782,0.00357,0.03743,0.00714,0.05525,0.00893c-0.02495-0.00536-0.0517-0.00893-0.07486-0.01428H170.94048z"/>
		<path class="st1" d="M171.28632,241.1037c0.05705,0.00713,0.11588,0.01427,0.17827,0.01962
			c0.06239,0.00533,0.12657,0.0089,0.19254,0.01424c0.04457,0.00357,0.08913,0.00534,0.13548,0.00713
			c0.05882,0.00357,0.12122,0.00536,0.18539,0.00893c0.041,0,0.08202,0.00179,0.12479,0.00179
			c-0.31554-0.00714-0.59363-0.02675-0.83607-0.05527C171.27205,241.10191,171.27919,241.1037,171.28632,241.1037z"/>
		<path class="st1" d="M173.30966,241.134c0.02853-0.00179,0.05884-0.00357,0.08736-0.00536
			c-0.04991,0.00179-0.09982,0.00536-0.14975,0.00714C173.26688,241.13579,173.28827,241.13579,173.30966,241.134z"/>
		<polygon class="st1" points="170.15787,240.74181 170.15787,240.74002 170.15074,240.73468 		"/>
		<path class="st1" d="M219.0018,175.19051c0.15509,0.0107,0.30305,0.01784,0.44568,0.02496
			C219.30486,175.20834,219.15511,175.19942,219.0018,175.19051z"/>
		<path class="st1" d="M162.93687,1.16103C76.40705,7.24997,7.33008,76.32693,1.24114,162.85677
			C-5.95444,265.11307,74.8674,350.3006,175.58795,350.3006c57.8661,0,109.16302-28.11838,140.97513-71.43594
			c1.70782-2.32465,3.36038-4.69562,4.9541-7.10583c18.24225-27.60316,28.86353-60.68633,28.86353-96.25099
			C350.38071,74.78729,265.19318-6.03455,162.93687,1.16103z M332.15448,179.15344
			c-0.01605,0.77904-0.04099,1.55806-0.06952,2.33533c-0.01068,0.29948-0.02316,0.59895-0.03745,0.89847
			c-0.01425,0.36366-0.03207,0.72911-0.0499,1.09279c-0.01425,0.28168-0.03033,0.56154-0.04459,0.8432
			c-0.02139,0.3815-0.04279,0.76479-0.06775,1.14629c-0.04276,0.66136-0.08734,1.32454-0.13727,1.98592
			c-0.00177,0.03386-0.00534,0.06772-0.00711,0.10161c-0.04816,0.6275-0.09982,1.25502-0.15509,1.88074
			c-0.02853,0.3298-0.05884,0.66138-0.09091,0.99117c-0.02142,0.2282-0.04279,0.45459-0.06598,0.68279
			c-0.01425,0.15152-0.0303,0.30484-0.04636,0.45636c-0.06058,0.60968-0.12656,1.21936-0.19608,1.82726
			c-0.17825,1.57947-0.3815,3.15181-0.60971,4.71701c-2.5011-5.11633-6.01834-11.2149-10.45901-16.24924
			c-1.17303-1.32988-2.41022-2.5849-3.70981-3.72939c-0.13727-0.14261-0.27097-0.287-0.41357-0.42606
			c-0.50626-0.48846-0.91095-0.86282-0.91095-0.86282c-1.06961-10.69614-7.15213-14.76602-9.56769-16.69312
			c-0.41357-0.33157-1.01971-0.24779-1.32632,0.18541c-0.1123,0.15866-0.16757,0.34406-0.16757,0.52946
			c0,0.20322,0.06598,0.40643,0.19968,0.57402l0.33691,0.42249l0.3815,0.46886l0.36545,0.47063
			c0.48309,0.62752,0.93768,1.24966,1.34058,1.89322c0.82184,1.27284,1.44757,2.60629,1.96094,3.94688
			c0.53128,1.52419,0.90027,3.07692,1.14276,4.6546c-0.66318-0.31377-1.34061-0.59541-2.03052-0.84322
			c-0.77545-0.29057-1.57944-0.49202-2.38165-0.69168l-1.22116-0.2282c-0.40823-0.06952-0.82181-0.09804-1.23181-0.14973
			c-0.41003-0.05705-0.82364-0.05884-1.23721-0.07845l-0.62036-0.02318c-0.20682-0.00534-0.41895,0.00713-0.62753,0.0107
			c-0.83966,0.0303-1.67749,0.12836-2.50287,0.2995c-1.64722,0.34227-3.23203,0.98225-4.66711,1.86292
			c-2.86655,1.76308-5.10739,4.53694-6.18771,7.73688c-1.09277,3.19458-1.01968,6.75639,0.17471,9.9064
			c1.19083,3.15356,3.49942,5.86327,6.42661,7.52472c1.45645,0.83966,3.06088,1.42258,4.71698,1.70961
			c0.82721,0.14262,1.66684,0.22284,2.50647,0.22284c0.8432,0,1.6882-0.07666,2.51715-0.23175
			c1.66327-0.30663,3.25342-0.95374,4.67599-1.84508c1.42615-0.89136,2.67227-2.04298,3.71335-3.34612
			c1.08032-1.35484,1.92352-2.8844,2.50824-4.50841c1.25504,1.88786,2.72754,4.81148,4.07346,8.43388
			c2.92899,7.88306,5.2536,19.06944,3.40137,30.06865c-0.47418,2.82556-1.2247,5.63684-2.31036,8.37686
			c-0.00177,0.00713-0.00357,0.01247-0.00714,0.01782c-0.02313,0.05168-0.04456,0.10516-0.06949,0.15688
			c-0.37439,0.86995-0.75943,1.73456-1.15161,2.59561c-0.03391,0.07129-0.06778,0.14081-0.10342,0.21213l0.04813-0.08914
			c-1.23361,2.7079-2.54211,5.37303-3.92191,7.99536c-0.46707,0.88423-0.94125,1.76488-1.42438,2.64015
			c-0.00357,0.00536-0.00534,0.00893-0.00891,0.01428c-0.1355,0.24779-0.27277,0.49559-0.4118,0.74336
			c-0.13727,0.24603-0.27631,0.4938-0.41534,0.73984c-0.32266,0.56868-0.64713,1.13556-0.97516,1.6989
			c-0.16937,0.28879-0.33871,0.57759-0.50806,0.86459c-0.32089,0.54195-0.64355,1.08032-0.96976,1.61691
			c-0.16406,0.2692-0.32803,0.53659-0.49203,0.80399c-1.56342,2.53677-3.19638,5.02539-4.89349,7.46414
			c-0.24246,0.3476-0.48666,0.69525-0.7327,1.04108c-0.39395,0.55264-0.78793,1.10349-1.18726,1.65079
			c-0.74698,1.02325-1.50461,2.0358-2.27295,3.03769c-0.28879,0.3779-0.57938,0.75229-0.8735,1.12665
			c-0.27988,0.36011-0.56155,0.71664-0.845,1.07318c-0.20142,0.25494-0.40289,0.50629-0.60611,0.75943
			c-0.38864,0.47955-0.77905,0.95911-1.173,1.43506c-0.19968,0.24246-0.40112,0.48312-0.60077,0.72556
			c-0.00534,0.00714-0.01068,0.01251-0.01605,0.01962c-0.36011,0.42963-0.72021,0.85568-1.08389,1.28177
			c-2.07681,2.43512-4.22675,4.80432-6.44797,7.10577c-0.65247,0.67566-1.3103,1.34595-1.97522,2.01086
			c-0.66495,0.66495-1.33524,1.32278-2.01089,1.97525c-2.30142,2.22122-4.67062,4.37115-7.10577,6.44797
			c-0.42432,0.36548-0.85214,0.72559-1.28177,1.08389c-0.00711,0.00537-0.01248,0.01068-0.01959,0.01605
			c-0.24246,0.19965-0.48312,0.40109-0.72559,0.60077c-0.47595,0.39395-0.9537,0.78436-1.43506,1.173
			c-0.25314,0.20322-0.50449,0.40466-0.75943,0.60611c-0.35654,0.28345-0.71307,0.56512-1.07318,0.845
			c-0.37436,0.29413-0.74872,0.58472-1.12665,0.8735c-1.00189,0.76834-2.01443,1.52597-3.03769,2.27295
			c-0.5473,0.39929-1.09814,0.7933-1.65079,1.18726c-0.34583,0.24603-0.69345,0.49023-1.04108,0.7327
			c-2.43872,1.69711-4.92737,3.33008-7.46414,4.89349c-0.2674,0.164-0.53479,0.32797-0.80399,0.492
			c-0.53659,0.32623-1.07497,0.6489-1.61691,0.96979c-0.28699,0.16934-0.57581,0.33868-0.86458,0.50806
			c-0.57404,0.33514-1.15163,0.66495-1.731,0.99295c-0.17827,0.10162-0.35654,0.20148-0.53659,0.30307
			c-0.25314,0.14084-0.50627,0.28168-0.76122,0.42252c-0.2157,0.11942-0.43141,0.23886-0.64711,0.35654
			c-0.08022,0.04456-0.15865,0.08734-0.23888,0.13013c-0.21394,0.11765-0.42964,0.23355-0.64355,0.3494
			c-0.51163,0.27454-1.02504,0.5473-1.54024,0.81827c-0.25851,0.1337-0.51521,0.2692-0.77368,0.40289
			c-0.82362,0.42606-1.65077,0.845-2.48152,1.255c-0.28165,0.13904-0.56334,0.27808-0.84499,0.41534
			c-0.48846,0.23889-0.9787,0.47244-1.46893,0.70596c-6.05403,2.87192-12.32732,5.36411-18.77885,7.45343
			c-0.1337,0.04279-0.26562,0.08734-0.39932,0.13013c-0.09984,0.03387-0.19789,0.06418-0.29771,0.09625
			c-0.13905,0.04636-0.27988,0.08914-0.41893,0.13373c-0.2068,0.06595-0.41182,0.13013-0.61859,0.19431
			c-0.23354,0.07309-0.46887,0.14618-0.70418,0.2175c-0.22816,0.07129-0.45636,0.13904-0.68633,0.20856
			c-0.29236,0.08914-0.58473,0.17648-0.87886,0.26205c-0.60078,0.17825-1.20155,0.3512-1.80588,0.5188
			c-0.30127,0.08377-0.60254,0.16754-0.90561,0.25134c-0.07845,0.02316-0.15866,0.04633-0.23888,0.06595
			c-0.28525,0.07846-0.57045,0.15509-0.85748,0.23175c-0.32622,0.08737-0.65245,0.17291-0.97868,0.25848
			c-0.37082,0.09628-0.74159,0.19073-1.1124,0.28522c-0.0945,0.02319-0.18898,0.04636-0.28348,0.07132
			c-0.33868,0.0838-0.6774,0.1676-1.01611,0.24957c-0.80579,0.19611-1.61511,0.38507-2.42624,0.5687
			c-0.32802,0.07486-0.65604,0.14795-0.98402,0.21924c-0.17473,0.03748-0.34943,0.07669-0.52234,0.11234
			c-0.31198,0.06772-0.62395,0.13373-0.93591,0.19965c-0.93237,0.19434-1.86829,0.38153-2.80774,0.55978
			c-0.02139,0.00357-0.0428,0.00714-0.06418,0.01068c-0.27989,0.05347-0.56155,0.10519-0.8432,0.15689
			c-0.29594,0.05527-0.59009,0.10873-0.886,0.16043c-0.2086,0.03745-0.41895,0.07489-0.6275,0.11053
			c-0.3833,0.06772-0.76836,0.13193-1.15164,0.19611c-2.62411,0.43497-5.27139,0.80399-7.93651,1.10703
			c-0.60793,0.06955-1.21759,0.1355-1.82726,0.19611c-0.15155,0.01605-0.30486,0.0321-0.45639,0.04636
			c-0.22818,0.02319-0.45459,0.04456-0.68279,0.06598c-0.32979,0.03207-0.66136,0.06235-0.99117,0.09091
			c-0.62572,0.05527-1.25323,0.10693-1.88072,0.15506c-0.03387,0.0018-0.06776,0.00537-0.10162,0.00714
			c-0.66138,0.04993-1.32452,0.09448-1.98592,0.13727c-0.3815,0.02496-0.76476,0.04636-1.14629,0.06775
			c-0.28165,0.01425-0.56152,0.0303-0.8432,0.04459c-0.36368,0.01782-0.72911,0.03564-1.09277,0.0499
			c-0.29951,0.01425-0.599,0.02676-0.89848,0.03745c-0.77727,0.02853-1.55629,0.05347-2.33533,0.06952
			c-0.2175,0.00537-0.43498,0.01071-0.65425,0.01425c-0.99474,0.01962-1.99127,0.02853-2.99135,0.02853
			c-1.00009,0-1.99661-0.00891-2.99136-0.02853c-0.21927-0.00354-0.43675-0.00888-0.65425-0.01425
			c-0.77902-0.01605-1.55806-0.04099-2.33531-0.06952c-0.2995-0.01068-0.59898-0.02319-0.89848-0.03745
			c-0.36366-0.01425-0.72911-0.03207-1.09277-0.0499c-0.28168-0.01428-0.56155-0.03033-0.84323-0.04459
			c-0.3815-0.02139-0.76477-0.04279-1.14627-0.06775c-0.66138-0.04279-1.32452-0.08734-1.98592-0.13727
			c-0.03387-0.00177-0.06773-0.00534-0.10161-0.00714c-0.6275-0.04813-1.255-0.09979-1.88074-0.15506
			c-0.32979-0.02856-0.66138-0.05884-0.99118-0.09091c-0.22818-0.02142-0.45457-0.04279-0.68277-0.06598
			c-0.15152-0.01425-0.30482-0.0303-0.45636-0.04636c-0.60968-0.06061-1.21936-0.12656-1.82727-0.19611
			c-2.6651-0.30304-5.31241-0.67206-7.93652-1.10703c-0.38329-0.06418-0.76834-0.12839-1.15163-0.19611
			c-0.20857-0.03564-0.41893-0.07309-0.6275-0.11053c-0.29593-0.0517-0.59007-0.10516-0.886-0.16043
			c-0.28166-0.0517-0.56332-0.10342-0.8432-0.15689c-0.02139-0.00354-0.0428-0.00711-0.06419-0.01068
			c-0.93947-0.17825-1.87538-0.36545-2.80772-0.55978c-0.31198-0.06592-0.62395-0.13193-0.93591-0.19965
			c-0.17293-0.03564-0.34763-0.07486-0.52234-0.11234c-0.328-0.07129-0.65602-0.14438-0.98402-0.21924
			c-0.81114-0.18362-1.62048-0.37259-2.42625-0.5687c-0.3387-0.08197-0.67741-0.16577-1.01613-0.24957
			c-0.09448-0.02496-0.18896-0.04813-0.28345-0.07132c-0.3708-0.09448-0.74159-0.18893-1.1124-0.28522
			c-0.32623-0.08557-0.65248-0.17111-0.9787-0.25848c-0.28702-0.07666-0.57225-0.15329-0.85747-0.23175
			c-0.08023-0.01962-0.16045-0.04279-0.23889-0.06595c-0.30305-0.0838-0.60434-0.16757-0.90561-0.25134
			c-0.60255-0.16937-1.20509-0.34232-1.80586-0.5188c-0.29414-0.08557-0.5865-0.17291-0.87886-0.26205
			c-0.22997-0.06952-0.45816-0.13727-0.68634-0.20856c-0.23532-0.07132-0.47063-0.14441-0.70416-0.2175
			c-0.20679-0.06418-0.4118-0.12836-0.61859-0.19431c-0.13905-0.04459-0.27988-0.08737-0.41893-0.13373
			c-0.09984-0.03207-0.19788-0.06238-0.29771-0.09625c-0.1337-0.04279-0.26562-0.08734-0.39932-0.13013
			c-6.45155-2.08932-12.72484-4.58151-18.77886-7.45343c-0.49023-0.23352-0.98048-0.46707-1.46893-0.70596
			c-0.28167-0.13727-0.56332-0.27631-0.84499-0.41534c-0.83073-0.41-1.6579-0.82895-2.4815-1.255
			c-0.25849-0.1337-0.5152-0.2692-0.7737-0.40289c-0.5152-0.27097-1.02861-0.54373-1.54025-0.81827
			c-0.21391-0.11584-0.42962-0.23175-0.64355-0.3494c-0.08022-0.04279-0.15866-0.08557-0.23888-0.13013
			c-0.21571-0.11768-0.43142-0.23712-0.64712-0.35654c-0.25493-0.14084-0.50807-0.28168-0.76121-0.42252
			c-0.18005-0.10159-0.35832-0.20145-0.53659-0.30307c-0.57938-0.328-1.15697-0.65781-1.731-0.99295
			c-0.2888-0.16937-0.57759-0.33871-0.8646-0.50806c-0.54194-0.32089-1.08031-0.64355-1.61691-0.96979
			c-0.26919-0.16403-0.53659-0.328-0.80399-0.492c-2.53677-1.56342-5.02541-3.19638-7.46413-4.89349
			c-0.34763-0.24246-0.69524-0.48666-1.04108-0.7327c-0.55264-0.39395-1.10349-0.78796-1.65077-1.18726
			c-1.02326-0.74698-2.03583-1.50461-3.03771-2.27295c-0.37792-0.28879-0.75229-0.57938-1.12665-0.8735
			c-0.36011-0.27988-0.71664-0.56155-1.07318-0.845c-0.25492-0.20145-0.50629-0.40289-0.75943-0.60611
			c-0.47955-0.38864-0.95908-0.77905-1.43506-1.173c-0.24245-0.19968-0.48312-0.40112-0.72556-0.60077
			c-0.00713-0.00537-0.01247-0.01068-0.0196-0.01605c-0.42963-0.36011-0.85569-0.72021-1.28176-1.08389
			c-2.43516-2.07681-4.80435-4.22675-7.1058-6.44797c-0.67564-0.65247-1.34594-1.3103-2.01088-1.97525
			c-0.66494-0.66492-1.32275-1.33521-1.97522-2.01086c-2.22123-2.30145-4.37115-4.67065-6.44799-7.10577
			c-0.36545-0.42432-0.72556-0.85214-1.08388-1.28177c-0.00534-0.00711-0.0107-0.01248-0.01604-0.01962
			c-0.19966-0.24243-0.4011-0.48309-0.60077-0.72556c-0.39398-0.47595-0.78439-0.95374-1.17301-1.43506
			c-0.20323-0.25314-0.40467-0.50449-0.60612-0.75943c-0.28344-0.35654-0.56511-0.71307-0.84499-1.07318
			c-0.29414-0.37436-0.58472-0.74875-0.87351-1.12665c-0.76834-1.00189-1.52598-2.01443-2.27293-3.03769
			c-0.39933-0.5473-0.7933-1.09814-1.18728-1.65079c-0.24601-0.34583-0.49024-0.69348-0.73268-1.04108
			c-1.69712-2.43875-3.33007-4.92737-4.89349-7.46414c-0.164-0.2674-0.32801-0.53479-0.49202-0.80399
			c-0.32623-0.53659-0.64889-1.07497-0.96978-1.61691c-0.16935-0.287-0.3387-0.57581-0.50806-0.86459
			c-0.3815-0.65427-0.75764-1.31206-1.13023-1.97343c-0.18718-0.3316-0.37079-0.66138-0.55442-0.99475
			c-0.16222-0.29056-0.32267-0.58116-0.48133-0.8735c-0.03387-0.06419-0.06952-0.12659-0.10339-0.18898
			c-0.16936-0.31197-0.33693-0.62393-0.5045-0.9377c-0.35833-0.67029-0.71129-1.34236-1.0607-2.01801
			c-0.16401-0.31731-0.32624-0.63463-0.48846-0.95372c-0.09983-0.19611-0.19966-0.39398-0.29949-0.59186
			c-0.13905-0.27989-0.27988-0.55977-0.41894-0.84143c-0.13192-0.26562-0.26205-0.53302-0.39218-0.80043
			c-0.26206-0.53481-0.51877-1.06961-0.77369-1.60799c-3.31046-6.99527-6.11819-14.274-8.37864-21.78981v-0.00179
			c-1.37267-4.56726-2.5439-9.22186-3.49942-13.95491c-0.00179,0.00357-0.00179,0.00714-0.00179,0.00893
			c-0.20322-1.00368-0.39575-2.01088-0.57759-3.01988c-0.06061-0.33694-0.12122-0.67206-0.18005-1.00902
			c-0.07844-0.44923-0.15509-0.89845-0.22996-1.34949c-0.43498-2.62411-0.804-5.27141-1.10705-7.93654
			c-0.06952-0.60789-0.13549-1.21758-0.19609-1.82726c-0.01605-0.15152-0.03209-0.30484-0.04635-0.45636
			c-0.02318-0.2282-0.04457-0.45459-0.06596-0.68279c-0.03209-0.32979-0.06239-0.66136-0.09092-0.99117
			c-0.05526-0.62572-0.10696-1.25323-0.15509-1.88074c-0.00178-0.03389-0.00534-0.06775-0.00713-0.10161
			c-0.04992-0.66138-0.09449-1.32455-0.13727-1.98592c-0.02496-0.3815-0.04635-0.76479-0.06774-1.14629
			c-0.01426-0.28166-0.0303-0.56152-0.04457-0.8432c-0.01782-0.36368-0.03566-0.72913-0.04991-1.09279
			c-0.01426-0.29951-0.02674-0.59898-0.03744-0.89847c-0.02853-0.77727-0.05348-1.55629-0.06953-2.33533
			c-0.00534-0.2175-0.01069-0.43498-0.01426-0.65427c-0.01961-0.99472-0.02852-1.99126-0.02852-2.99135
			c0-1.00008,0.00891-1.99661,0.02852-2.99135c0.00357-0.21927,0.00892-0.43677,0.01426-0.65425
			c0.01605-0.77904,0.041-1.55806,0.06953-2.33531c0.01069-0.2995,0.02318-0.599,0.03744-0.89848
			c0.01425-0.36366,0.03209-0.72911,0.04991-1.09279c0.01427-0.28166,0.0303-0.56154,0.04457-0.84322
			c0.02139-0.3815,0.04278-0.76477,0.06774-1.14627c0.04278-0.66138,0.08735-1.32454,0.13727-1.98592
			c0.00178-0.03387,0.00534-0.06775,0.00713-0.10161c0.04814-0.6275,0.09983-1.25502,0.15509-1.88074
			c0.02853-0.3298,0.05883-0.66139,0.09092-0.99118c0.02139-0.2282,0.04278-0.45459,0.06596-0.68277
			c0.01426-0.15152,0.0303-0.30484,0.04635-0.45638c0.06061-0.60966,0.12658-1.21935,0.19609-1.82726
			c0.30306-2.66512,0.67208-5.31241,1.10705-7.93652c0.06953-0.41895,0.14083-0.83609,0.21392-1.25502
			c0.02139-0.12657,0.04457-0.25314,0.06596-0.37971c0.06239-0.35297,0.12479-0.70772,0.19253-1.0607
			c0.08378-0.46172,0.17113-0.92165,0.25848-1.37981c0.10697-0.56154,0.21928-1.12309,0.33336-1.68286
			c0.04992-0.24779,0.10162-0.49736,0.15509-0.74516c0.00357-0.01604,0.00714-0.0303,0.00892-0.04636
			c0.16757-0.7915,0.34049-1.58124,0.51876-2.3674c0.15154-0.6685,0.30663-1.33524,0.46706-2.00018
			c0.21928-0.91273,0.44746-1.82368,0.68277-2.73108c0.23532-0.90561,0.47954-1.80765,0.72911-2.7079
			c0.25137-0.89848,0.50986-1.79517,0.77548-2.68651c0.26919-0.8967,0.54372-1.79161,0.82717-2.68118
			c0.31197-0.97334,0.63107-1.94313,0.95909-2.90936c0.08557-0.25671,0.17292-0.51341,0.26205-0.77011l0.00178,0.00177
			c2.98779,2.67226,6.46582,5.4176,9.88324,8.16473c1.85934,1.49211,3.70087,2.98422,5.43542,4.46564
			c3.32115,2.83269,5.85079,5.50494,8.06132,8.03279c1.54025,1.76131,2.9254,3.45129,4.3159,5.07532v0.00179
			c-0.01604,0.02318-0.03209,0.04636-0.04813,0.07132c0.16402,0.14973,0.3298,0.2977,0.49202,0.44566
			c4.01641,4.65103,8.20037,8.75836,16.37757,12.44318c0.62217,0.30128,1.23719,0.56868,1.84688,0.79686
			c3.95935,1.63474,8.05953,2.31215,12.07416,2.15706c0.75051,0.50807,0.6685,1.87717-0.44924,2.09645
			c-5.12702,1.00543-10.58026,0.69345-16.10838-1.3495c-6.34995-2.38345-11.06159-5.39085-17.72886-11.15608
			c-0.32088,0.517-0.63998,1.03754-0.9573,1.55807c-0.7933,1.30136-1.57055,2.60986-2.32819,3.92371
			c-0.19075,0.32979-0.37971,0.65781-0.56868,0.98761c-0.37793,0.65781-0.75051,1.3174-1.11775,1.97879
			c-0.1854,0.33157-0.36901,0.66136-0.55085,0.99295c-0.14618,0.26562-0.29058,0.53125-0.43676,0.79686
			c-0.1444,0.26384-0.2888,0.52946-0.43141,0.79509c-0.09805,0.18182-0.1961,0.36366-0.29415,0.5455
			c-0.01069,0.01961-0.02139,0.03922-0.03209,0.05882c-0.17648,0.3298-0.35297,0.66138-0.52768,0.99118c0,0,0,0,0,0.00177
			c-0.45993,0.86996-0.91274,1.73991-1.36018,2.61165v0.00179c-0.16757,0.32623-0.33337,0.65425-0.49916,0.98048
			c-0.16579,0.32623-0.33158,0.65424-0.49202,0.98225c-0.32801,0.65425-0.65068,1.3085-0.96978,1.96275
			c-0.42606,0.8735-0.84322,1.74702-1.25323,2.61877v0.00177c-0.4118,0.87173-0.81469,1.74347-1.21044,2.61522c0,0,0,0,0,0.00177
			c-0.39398,0.86995-0.7826,1.7399-1.1641,2.60808c-0.19075,0.43497-0.37793,0.86816-0.56511,1.30315
			c-0.16936,0.39397-0.33693,0.78616-0.50272,1.17836c-0.06239,0.14795-0.12479,0.29771-0.18718,0.44568
			c-0.11588,0.27274-0.22819,0.5437-0.34229,0.81645c-0.1123,0.27098-0.22461,0.54195-0.33513,0.81293
			c-0.02318,0.05525-0.04457,0.10873-0.06775,0.16399c-0.10518,0.25673-0.21035,0.51344-0.31376,0.77193
			c-0.00179,0.00536-0.00535,0.01247-0.00714,0.01782c-0.14617,0.36011-0.29057,0.72018-0.43319,1.08029
			c-0.10339,0.25851-0.205,0.51877-0.30662,0.77728c-0.20323,0.51695-0.40467,1.03394-0.60255,1.54913
			c-0.09805,0.2567-0.19609,0.51521-0.29415,0.77193c-0.16222,0.42604-0.32088,0.85033-0.47776,1.27461
			c-0.15688,0.42427-0.31197,0.84856-0.46528,1.26927c-0.07665,0.21214-0.15331,0.42249-0.22819,0.63286
			c-0.02674,0.07132-0.0517,0.14082-0.07666,0.21216v0.00175c1.72564,12.44319,5.06284,24.55479,9.98485,36.19218
			c3.626,8.56938,8.11124,16.83572,13.3363,24.56902c5.17694,7.66379,11.1222,14.86942,17.67181,21.41904
			c6.5496,6.54962,13.75524,12.49487,21.41902,17.67181c7.73331,5.22507,15.99965,9.7103,24.56904,13.3363
			c17.8269,7.539,36.77154,11.36285,56.30627,11.36285s38.47935-3.82385,56.30626-11.36285
			c8.56938-3.62601,16.83574-8.11124,24.56902-13.3363c7.66379-5.17694,14.86945-11.12219,21.41907-17.67181
			c6.54959-6.54962,12.49484-13.75525,17.67178-21.41904c5.22507-7.73329,9.7103-15.99963,13.3363-24.56902
			c0.75409-1.7827,1.47073-3.57607,2.14816-5.38017c-0.29419-0.2852-0.59366-0.56688-0.8967-0.845
			c-0.07489-0.0695-0.14978-0.13905-0.22641-0.20677c-0.07666-0.06952-0.15332-0.13727-0.22998-0.2068
			c-0.00891-0.0089-0.01782-0.01604-0.02673-0.02495c-0.07312-0.06418-0.14441-0.12836-0.2175-0.19254
			c-0.07132-0.06595-0.14438-0.13014-0.21747-0.19252c-0.15509-0.13727-0.31198-0.27097-0.46887-0.40645
			c-0.01782-0.01428-0.03564-0.03032-0.05347-0.04636c-0.2157-0.18184-0.4332-0.36546-0.65247-0.5473
			c-0.00177,0-0.00357-0.00179-0.00534-0.00357c-0.2175-0.18005-0.43497-0.35654-0.65604-0.53481
			c-0.02139-0.01782-0.04456-0.03564-0.06775-0.05347c-0.1622-0.12837-0.32623-0.25671-0.49023-0.38507
			c-0.16223-0.12834-0.328-0.25491-0.4938-0.38148c-0.15329-0.11768-0.31021-0.23531-0.46527-0.3512
			c-0.05884-0.04456-0.11945-0.08913-0.17825-0.1337c-0.14264-0.10339-0.28348-0.20859-0.42612-0.31197
			c-0.14438-0.10518-0.28699-0.20859-0.4314-0.3102c-0.06241-0.04456-0.12476-0.08913-0.18716-0.1337
			c-0.23352-0.16759-0.46884-0.33157-0.70596-0.4938c-0.23532-0.16223-0.47241-0.32266-0.71127-0.48134
			c0-0.00177-0.0018-0.00177-0.0018-0.00177c-0.02139-0.01425-0.04456-0.0303-0.06595-0.04457
			c-0.13727-0.09091-0.27451-0.18361-0.4118-0.27275c-0.22638-0.14795-0.45459-0.29593-0.68277-0.44211
			c-0.21927-0.14084-0.43854-0.27986-0.65958-0.41714c-0.19434-0.12123-0.39044-0.24246-0.58832-0.36188
			c-0.06952-0.04457-0.14084-0.08557-0.21033-0.13014c-0.00894-0.00536-0.01785-0.01071-0.02676-0.01605
			c-0.00714-0.00357-0.01425-0.00891-0.02139-0.01248c-0.21213-0.12836-0.42606-0.25493-0.63998-0.38148
			c-0.2157-0.12836-0.4332-0.25491-0.65247-0.3815c-0.10876-0.06239-0.21927-0.12479-0.328-0.18718
			c-0.00537-0.00356-0.00891-0.00534-0.01428-0.00891c-0.17114-0.09807-0.34406-0.19609-0.51697-0.29237
			c-0.246-0.13727-0.4938-0.27452-0.74158-0.41c-0.01785-0.00893-0.03568-0.01962-0.0535-0.02853
			c-0.01248-0.00713-0.02316-0.01247-0.03564-0.01959c-0.23355-0.12836-0.46887-0.25494-0.70239-0.37796
			c-0.5152-0.27452-1.03394-0.54192-1.5545-0.80576c-0.26028-0.13194-0.52054-0.26207-0.78259-0.39043
			c-0.26205-0.13013-0.52588-0.25668-0.78793-0.38326c-0.26385-0.12659-0.52771-0.25136-0.79153-0.37616
			c-0.52948-0.24957-1.05893-0.49203-1.59195-0.72734c-0.23532-0.10695-0.47241-0.21214-0.7095-0.31554
			c-0.29593-0.12834-0.59366-0.25671-0.89313-0.38329c-0.26743-0.11586-0.53659-0.22818-0.80579-0.33868
			c-0.2692-0.11234-0.53839-0.22284-0.80579-0.3316c-0.53836-0.21927-1.07852-0.43318-1.61868-0.64177
			c-0.27631-0.10695-0.55261-0.21391-0.83072-0.31908c-0.26205-0.09985-0.52588-0.19791-0.78973-0.29416
			c-0.27097-0.09984-0.54016-0.19788-0.81113-0.29593c-0.54016-0.19609-1.08032-0.38683-1.62045-0.57224
			c-0.27097-0.0927-0.54016-0.18541-0.80933-0.27632c-0.03387-0.0125-0.06955-0.02496-0.10342-0.03564
			c-0.23532-0.08022-0.47061-0.15866-0.70593-0.23534c-0.2692-0.08913-0.53836-0.17648-0.80756-0.26204
			c-0.2674-0.08736-0.53659-0.17293-0.80399-0.2567c-0.2692-0.08557-0.53662-0.16937-0.80402-0.25137
			c-0.2674-0.08202-0.53479-0.16402-0.80042-0.24423c-0.2674-0.0802-0.53302-0.16045-0.79865-0.23889
			c-0.26562-0.07843-0.53125-0.15508-0.79507-0.23174c-0.52768-0.15331-1.05536-0.30307-1.58127-0.44745
			c-0.26205-0.0731-0.52411-0.14439-0.78436-0.21394c-0.26025-0.07129-0.52057-0.14082-0.77905-0.20856
			c-0.01602-0.00536-0.03207-0.00893-0.04636-0.0125c-0.50449-0.1337-1.00363-0.26205-1.50101-0.38861
			c-0.06241-0.01607-0.12479-0.03207-0.189-0.04814c-0.37256-0.0927-0.74335-0.18541-1.1106-0.27454
			c-0.36902-0.08914-0.73444-0.17827-1.09991-0.26384c-0.21036-0.04991-0.41895-0.09805-0.6275-0.14616
			c-0.2478-0.05882-0.49561-0.11411-0.74161-0.17116c-0.44388-0.09982-0.88422-0.19785-1.32098-0.29413
			c-0.53122-0.11588-1.05533-0.22818-1.5741-0.33514c-0.47241-0.09805-0.93948-0.19252-1.39941-0.28522
			c-0.25137-0.04993-0.50095-0.09985-0.74872-0.14619c-0.24783-0.04993-0.4938-0.09628-0.73807-0.14262
			c-0.28519-0.05525-0.56866-0.10693-0.84854-0.15865c-0.34048-0.06241-0.67563-0.12302-1.0072-0.18184
			c-0.2157-0.03922-0.42786-0.07666-0.63824-0.1123c-0.00177-0.00179-0.00354-0.00179-0.00534-0.00179
			c-0.21036-0.03568-0.41711-0.0731-0.62393-0.10696c-0.39932-0.06773-0.7915-0.1337-1.17654-0.19611
			c-0.01608-0.00357-0.03033-0.00534-0.04636-0.00713c-0.19968-0.03387-0.39755-0.06595-0.59366-0.09627
			c-0.15152-0.02496-0.30304-0.04811-0.45282-0.0713c-0.14972-0.02495-0.29947-0.04636-0.44745-0.06952
			c-0.8842-0.13727-1.72385-0.2585-2.51357-0.36723c-0.17648-0.02496-0.35121-0.04814-0.52234-0.07132
			c-0.1123-0.01604-0.22462-0.0303-0.33514-0.04636c-0.0731-0.0089-0.14619-0.01782-0.21927-0.02852
			c-0.07132-0.0089-0.14262-0.01781-0.21391-0.0285c-0.09093-0.01071-0.18005-0.02139-0.2692-0.03387
			c-0.08913-0.0107-0.17648-0.02319-0.26382-0.03387c-0.04457-0.00536-0.08737-0.01068-0.13194-0.01604
			c-0.04279-0.00536-0.08736-0.01071-0.13013-0.01607c-0.08736-0.01068-0.17471-0.02139-0.2603-0.03207
			c-0.08556-0.0107-0.17113-0.02141-0.25491-0.0303c-0.10516-0.01427-0.20677-0.02496-0.3084-0.03743
			c-0.13727-0.01604-0.27275-0.0321-0.40646-0.04814c-0.2674-0.03032-0.52231-0.05882-0.76656-0.08736
			c-0.13725-0.01425-0.2692-0.02852-0.39932-0.04277c-0.21748-0.02318-0.42426-0.04457-0.62038-0.06596
			c-0.10161-0.00893-0.19963-0.01962-0.29413-0.02853c-0.05884-0.00711-0.11588-0.01247-0.17291-0.01782
			c-0.69171,4.15546-2.69724,7.73508-5.98271,10.67476c-3.46555,3.1001-8.31982,5.49066-15.27765,7.52293
			c-1.8665,0.5455-3.47092,1.24966-5.02008,2.03049c-0.00177,0-0.00177,0.00179-0.00356,0.00179
			c-0.08559,0.05884-0.17114,0.11588-0.25671,0.17291c-0.39575,0.26384-0.7915,0.52589-1.18547,0.78261
			c-0.02319,0.01604-0.04814,0.03032-0.07132,0.04636c-0.30307,0.19788-0.60611,0.3922-0.90916,0.58649
			c-0.2995,0.19077-0.59721,0.38152-0.8967,0.56691c-0.11052,0.06952-0.21927,0.13727-0.32803,0.20679
			c-0.15506,0.09628-0.31018,0.19255-0.46347,0.28702c-0.08913,0.05347-0.17648,0.10873-0.26385,0.16223
			c-0.32445,0.19966-0.64711,0.39575-0.97156,0.59007c-0.08559,0.05168-0.17116,0.10338-0.25671,0.15508
			c-0.20857,0.1248-0.41536,0.2478-0.62395,0.37082c-0.07129,0.04279-0.14262,0.08377-0.21213,0.12477
			c-0.25314,0.14977-0.5063,0.29594-0.75943,0.44211c-0.04814,0.02853-0.09627,0.05705-0.14441,0.08379
			c-0.07843,0.04634-0.15686,0.09091-0.23531,0.13548c-0.21571,0.1248-0.4332,0.24782-0.6489,0.36903
			c-0.32625,0.18361-0.65245,0.36545-0.97691,0.5455l-0.60434,0.33156c-0.22284,0.12123-0.44566,0.24246-0.6685,0.36189
			c-0.13191,0.07132-0.26562,0.14262-0.39754,0.21216c-0.21037,0.1123-0.41893,0.22282-0.6293,0.33157
			c-0.03743,0.01961-0.07309,0.03922-0.11052,0.05882c-0.37614,0.19788-0.75229,0.3922-1.12846,0.58116
			c-0.03386,0.01782-0.06772,0.03387-0.10158,0.0517c-0.13727,0.07132-0.27632,0.13904-0.41359,0.20859
			c-0.13727,0.07129-0.27634,0.13904-0.4136,0.20677c-0.31018,0.15509-0.61858,0.30663-0.92699,0.45638
			c-0.19788,0.09628-0.39575,0.19254-0.59364,0.28523c-0.15508,0.07487-0.3102,0.14973-0.46526,0.22284
			c-0.43678,0.2068-0.87177,0.40822-1.30495,0.60611c-0.19609,0.08914-0.39218,0.17827-0.58652,0.26562
			c-0.24242,0.10875-0.48309,0.21748-0.72375,0.32268c-0.13016,0.05879-0.26207,0.11586-0.39221,0.17291
			c-0.21213,0.09271-0.42604,0.18539-0.63818,0.27631c-8.15936,3.50121-15.88377,5.62262-22.9771,6.80096
			c-0.29236,0.04814-0.58293,0.09628-0.87352,0.14084c-0.12657,0.01961-0.25136,0.03922-0.37793,0.05882
			c-0.05882,0.0089-0.11943,0.01782-0.17827,0.02675c-0.164,0.02493-0.32802,0.04993-0.48668,0.07129
			c-0.02852,0.00357-0.05704,0.00893-0.08557,0.0125l-0.26204,0.03743c-0.2585,0.03743-0.50807,0.0713-0.75052,0.10162
			c-0.14261,0.01782-0.28346,0.03564-0.42429,0.05348c-0.08022,0.00891-0.16222,0.01959-0.24245,0.0285
			c-0.1123,0.01428-0.22461,0.02675-0.33693,0.03922c-0.09982,0.01071-0.19966,0.02321-0.30127,0.0321
			c-0.08736,0.0089-0.17648,0.01961-0.26384,0.02675c-0.00179,0-0.00179,0-0.00357,0
			c-0.04813,0.00536-0.09625,0.01068-0.14439,0.01425h-0.00713c-0.05171,0.00536-0.10161,0.01068-0.15331,0.01425
			c-0.03032,0.00357-0.06062,0.00714-0.09093,0.00893c-8.10945,0.79686-16.30804-0.01604-24.07346-2.53499
			c-6.14136-1.99127-9.85648-4.2963-12.01711-6.06471c-0.85568-0.70058-0.1337-2.06792,0.92879-1.76486
			c11.05267,3.16072,20.04456,4.24635,27.18602,4.24635c6.71361,0,11.7925-0.95906,15.40601-2.05899h0.00177
			c3.71158-1.76309,6.89546-3.12149,7.03271-3.17853c0.00357-0.00179,0.00536-0.00357,0.00536-0.00357
			c-5.59943-0.2995-8.53731-0.79686-9.59801-1.39943c-13.92816-3.47624-20.24423-12.16864-22.56885-16.40608
			c-0.31197-0.5687,0.37614-1.15697,0.88777-0.76122c12.83003,9.9296,26.06828,11.5251,36.12979,11.5251
			c0.61147,0,1.20865-0.00536,1.79517-0.01607c-1.29781-2.1909-1.99661-4.81683-1.99661-7.58533
			c0-3.92371,0.8735-7.252,2.74712-10.47508c1.54559-2.65622,3.53865-4.85962,5.84901-7.40886
			c2.05367-2.26936,4.38365-4.84003,6.89365-8.30379c0.69884-0.96442,1.53848-2.33888,2.42982-3.79178
			c1.91818-3.13396,4.09305-6.68507,6.87404-9.6907c0.0731-0.07843,0.14618-0.15688,0.22108-0.23352
			c-0.00179,0-0.00179,0-0.00357-0.00179h-0.00893c-0.65959-0.04813-1.39764-0.11766-2.19629-0.21927
			c-0.19785-0.02496-0.39932-0.0517-0.60609-0.08023c-0.01427-0.00179-0.02853-0.00356-0.04279-0.00534
			c-0.23354-0.03387-0.47066-0.06953-0.71307-0.10873c-0.01605-0.00357-0.03387-0.00536-0.04991-0.00893
			c-0.2068-0.03209-0.41718-0.06775-0.63109-0.10696c-0.17291-0.02852-0.34761-0.06061-0.52588-0.09625
			c-0.17291-0.0321-0.34586-0.06596-0.52234-0.10162c-0.00713-0.00179-0.01604-0.00357-0.02496-0.00536
			c-0.17291-0.03564-0.34761-0.07307-0.52409-0.11052c-0.00357-0.00179-0.00893-0.00179-0.0125-0.00357
			c-0.16222-0.03564-0.32622-0.0713-0.49023-0.11052c-0.04814-0.0107-0.09807-0.02318-0.14796-0.03387
			c-0.15866-0.03743-0.31908-0.07666-0.47955-0.11766c-0.19963-0.04991-0.40289-0.10161-0.60609-0.15688
			c-0.17827-0.04634-0.35832-0.09625-0.53838-0.14796c-0.0535-0.01425-0.10876-0.0303-0.16402-0.04636
			c-0.13904-0.0392-0.27809-0.0802-0.41714-0.12299c-0.27989-0.0838-0.56155-0.17293-0.8432-0.26562
			c-0.123-0.041-0.24602-0.08022-0.36903-0.12302c-0.07307-0.02495-0.14796-0.0517-0.22105-0.07664
			c-0.00893-0.00357-0.01782-0.00536-0.02672-0.00891c-0.041-0.01427-0.08202-0.02852-0.12302-0.04279
			c-0.13371-0.04814-0.2692-0.09627-0.40289-0.14618c-0.08202-0.02852-0.16223-0.05884-0.24423-0.09093
			c-0.24779-0.0927-0.49738-0.18896-0.74515-0.29057c-0.1248-0.04991-0.2496-0.10162-0.37439-0.15332
			c-0.30482-0.12834-0.60966-0.26204-0.91273-0.40109c-0.14438-0.06596-0.287-0.13193-0.42963-0.19966
			c-0.14261-0.06775-0.2852-0.13727-0.42783-0.20857c-0.0125-0.00536-0.02321-0.0107-0.03389-0.01605
			c-0.13191-0.06596-0.26205-0.13191-0.39218-0.19966c-0.14262-0.07309-0.28523-0.14796-0.42607-0.22462
			c-0.14262-0.07486-0.28346-0.15331-0.42427-0.23175c-0.15332-0.08556-0.30664-0.17291-0.45815-0.26204
			c-0.12836-0.07489-0.25671-0.15154-0.3833-0.2282c-0.123-0.07487-0.24422-0.14975-0.36545-0.22462
			c-0.15688-0.09982-0.31197-0.19966-0.46706-0.30127c-0.13727-0.09091-0.27455-0.18361-0.41182-0.27811
			c-0.13548-0.0927-0.27097-0.18718-0.40466-0.28343c-0.00177,0-0.00356-0.00179-0.00534-0.00357
			c-0.01247-0.00891-0.02675-0.01782-0.03923-0.02853c-0.00534-0.00356-0.00891-0.00713-0.01424-0.0107
			c-0.11769-0.08199-0.23354-0.16757-0.34943-0.25491h-0.00179c-0.1337-0.09984-0.2674-0.20145-0.39931-0.30484
			c-0.13193-0.10161-0.26384-0.20502-0.394-0.31018c-0.00354-0.00357-0.00533-0.00536-0.00711-0.00536
			c-0.12659-0.10339-0.25137-0.20679-0.37614-0.31197c-0.00357-0.00357-0.00893-0.00713-0.0125-0.0107
			c-0.12834-0.10875-0.2567-0.21927-0.38504-0.33159c-0.00357-0.00356-0.00714-0.00534-0.00893-0.00713
			c-0.12657-0.11232-0.25134-0.22461-0.37614-0.3405c-0.12659-0.11588-0.25314-0.23531-0.37793-0.35475
			c-0.07843-0.07664-0.15688-0.15509-0.23355-0.23532l-0.00534-0.00534c-0.04991-0.05348-0.10159-0.10875-0.1515-0.16402
			c-0.02142-0.02495-0.04457-0.05168-0.06776-0.07843c-0.03564-0.041-0.07129-0.08202-0.10515-0.123
			c-0.03568-0.04279-0.06955-0.08379-0.10341-0.12657c-0.0535-0.06596-0.10698-0.1337-0.15868-0.20323
			c-0.04634-0.06061-0.0927-0.123-0.13727-0.18718c-0.03209-0.04279-0.06239-0.08557-0.09268-0.13014
			c-0.02498-0.03566-0.04991-0.0713-0.07312-0.10695c-0.04634-0.06775-0.09268-0.13728-0.13548-0.2068
			c-0.02315-0.03209-0.04279-0.06418-0.06058-0.09627c-0.04279-0.06416-0.08202-0.12834-0.11945-0.19254
			c-0.05171-0.08377-0.09982-0.16757-0.14796-0.25134c-0.03923-0.06775-0.07845-0.1355-0.11589-0.20502
			c-0.00356-0.00534-0.00713-0.01248-0.0107-0.01782c-0.03209-0.05884-0.06238-0.11766-0.09268-0.17648
			c-0.03212-0.06062-0.06419-0.11945-0.09448-0.18005c-0.00714-0.0107-0.0125-0.02139-0.01784-0.03209
			c-0.041-0.08023-0.082-0.16223-0.12122-0.24602c-0.10698-0.21927-0.21213-0.44388-0.31197-0.67386
			c-0.03922-0.08736-0.07843-0.17827-0.11589-0.2692c-0.03566-0.08377-0.0713-0.16756-0.10516-0.25134
			c-0.03922-0.09627-0.08022-0.19432-0.11768-0.29237c-0.05347-0.1337-0.10516-0.26918-0.15688-0.40645
			c-0.03386-0.08913-0.06595-0.17648-0.09805-0.26561c-0.04457-0.11588-0.08557-0.23354-0.12656-0.3512
			c-0.0535-0.15152-0.10696-0.30305-0.15866-0.45638c-0.03922-0.11765-0.07846-0.23531-0.11768-0.35297
			c-0.04634-0.13727-0.09091-0.27454-0.1337-0.41359c-0.03743-0.11588-0.07486-0.23174-0.1105-0.34941
			c-0.02498-0.07664-0.04814-0.15509-0.07133-0.23174c-0.02493-0.07845-0.04811-0.15689-0.07129-0.23532
			c-0.05348-0.17648-0.10698-0.35297-0.15866-0.53302c-0.08023-0.27277-0.16045-0.55263-0.24066-0.8343
			c-0.04279-0.15154-0.08556-0.30484-0.12834-0.45993c-0.08557-0.30841-0.17116-0.62038-0.25851-0.93948
			c0-0.00177,0-0.00177,0-0.00177c-0.06595-0.23889-0.13013-0.47955-0.19431-0.72377
			c-0.06419-0.24246-0.13013-0.48848-0.19611-0.73804c-0.08736-0.33159-0.17648-0.66673-0.26741-1.00723
			c-0.08913-0.3387-0.18005-0.68275-0.27274-1.03038c0-0.00357-0.00179-0.00714-0.00179-0.0107
			c-0.08556-0.31911-0.17114-0.64-0.2585-0.96445c-0.15329-0.56154-0.3084-1.132-0.47061-1.71317
			c-0.04991-0.17827-0.09984-0.35832-0.15155-0.53838c-0.05168-0.18361-0.10516-0.36902-0.15863-0.55441
			c-0.08557-0.29948-0.17291-0.59898-0.26205-0.90204c-0.00714-0.02318-0.01427-0.04636-0.02141-0.06953
			c-0.07129-0.23886-0.14439-0.47954-0.21748-0.72198c-0.00357-0.01604-0.00893-0.0303-0.01428-0.04634
			c-0.08022-0.26741-0.16399-0.53661-0.24777-0.80577c-0.03207-0.09984-0.06241-0.19789-0.09448-0.29771
			c-0.07129-0.22462-0.14441-0.44923-0.21748-0.67564c-0.03207-0.10161-0.06596-0.20323-0.09984-0.30663
			c-0.03209-0.10161-0.06773-0.20322-0.10161-0.30663c-0.06775-0.205-0.13727-0.40823-0.2068-0.61502
			c-0.04814-0.14262-0.09805-0.28523-0.14795-0.42963c-0.01425-0.04279-0.03032-0.08736-0.04636-0.13014
			c-0.06775-0.19788-0.13905-0.39575-0.21037-0.59363c-0.08556-0.24068-0.17291-0.47955-0.26204-0.72021
			c-0.00179-0.00356-0.00179-0.00713-0.00357-0.0107c-0.09271-0.24957-0.18541-0.49915-0.28166-0.74873
			c-0.05525-0.14973-0.11409-0.29948-0.17294-0.44923c-0.00711-0.01961-0.01601-0.041-0.02315-0.06061
			c-0.01071-0.02673-0.02141-0.05527-0.0321-0.082c-0.04099-0.10518-0.08377-0.21037-0.1248-0.31554
			c-0.06593-0.16757-0.1337-0.33514-0.2032-0.5045c-0.082-0.20145-0.16577-0.40645-0.25136-0.60968
			c-0.18005-0.4332-0.36723-0.86639-0.56155-1.30315c-0.07843-0.17827-0.15865-0.35654-0.24066-0.53659
			c-0.06596-0.14618-0.1337-0.29416-0.20323-0.44211c-0.03564-0.07487-0.0695-0.15154-0.10516-0.22641
			c-0.07846-0.16757-0.15868-0.33693-0.24066-0.50629c-0.01964-0.041-0.041-0.08377-0.06064-0.12477
			c-0.03207-0.06596-0.06415-0.13193-0.09624-0.19789c-0.0321-0.06418-0.06418-0.13013-0.09628-0.19609
			c-0.00533-0.01248-0.01068-0.02318-0.01782-0.03566c-0.06952-0.14439-0.14084-0.28879-0.21391-0.4332
			c-0.09091-0.17827-0.18184-0.35832-0.27454-0.53659c-0.13905-0.27095-0.28168-0.54372-0.42786-0.81468
			c-0.11766-0.22105-0.23709-0.44211-0.36011-0.66316c-0.0303-0.05347-0.05882-0.10695-0.08913-0.16045
			c-0.09982-0.17827-0.19966-0.35654-0.30128-0.53481c-0.02316-0.03922-0.04634-0.08022-0.06772-0.11943
			c-0.10876-0.18896-0.21927-0.37793-0.32982-0.56689c-0.24956-0.4225-0.50626-0.845-0.77011-1.26749
			c-0.06418-0.10162-0.12836-0.20502-0.19431-0.30843c-0.10164-0.15865-0.20323-0.31731-0.30663-0.47597
			c-0.09984-0.15331-0.19968-0.30663-0.30128-0.45995c-0.00354-0.00534-0.00711-0.0107-0.01068-0.01604
			c-0.06419-0.09804-0.13014-0.19609-0.19791-0.29414c-0.20677-0.31018-0.42068-0.62038-0.64174-0.93056
			c-0.07133-0.10339-0.14441-0.2068-0.21928-0.31018c-0.0731-0.10341-0.14796-0.2068-0.22284-0.31021
			c-0.14973-0.20679-0.30128-0.4118-0.45636-0.61858c-0.07487-0.10339-0.15334-0.20501-0.23175-0.3084
			c-0.15511-0.20502-0.31377-0.41003-0.47418-0.61504c-0.07846-0.10339-0.16048-0.20501-0.24246-0.30841
			c-0.08022-0.1016-0.16223-0.20322-0.24602-0.30662c-0.164-0.20502-0.32979-0.41002-0.50093-0.61324
			c-0.08379-0.10162-0.16936-0.20502-0.25671-0.30662c-0.16934-0.20323-0.34406-0.40646-0.52232-0.60969
			c-0.08736-0.10162-0.17648-0.20322-0.26562-0.30483c-0.08734-0.10162-0.17827-0.20145-0.26918-0.30306
			c-0.18184-0.20323-0.36545-0.40467-0.55084-0.60612c-0.10876-0.11944-0.21928-0.23888-0.33337-0.35832
			c-0.07487-0.082-0.15154-0.16401-0.23175-0.24602c-0.14439-0.15152-0.2888-0.30126-0.43498-0.4528
			c-0.14616-0.15152-0.29413-0.30128-0.44389-0.4528c-0.09625-0.09805-0.19609-0.19611-0.29413-0.29237
			c-0.24246-0.24244-0.48846-0.48133-0.73982-0.7202c-0.11409-0.11053-0.22997-0.21928-0.34584-0.32803
			c-0.11766-0.11052-0.23532-0.22105-0.35475-0.32979c-0.10519-0.09806-0.21036-0.19611-0.31732-0.29237
			c-0.03922-0.03565-0.07843-0.07131-0.11766-0.10696c-0.21748-0.19611-0.43675-0.39041-0.65781-0.58651
			c-0.13193-0.11587-0.26741-0.23354-0.40289-0.3494c-0.15688-0.13727-0.31732-0.27276-0.47777-0.41003
			c-0.14973-0.12478-0.30127-0.24957-0.45279-0.37614c-0.15688-0.13013-0.31554-0.26028-0.47598-0.38863
			c-0.16045-0.13013-0.32268-0.26028-0.48489-0.38863c-0.16222-0.13013-0.32623-0.25849-0.49202-0.38684
			c-0.00179-0.00179-0.00357-0.00357-0.00534-0.00535c-0.08202-0.06418-0.16402-0.12658-0.24602-0.18896
			c-0.082-0.06418-0.16579-0.12835-0.24959-0.19075c-0.16757-0.12658-0.33693-0.25493-0.50806-0.3815
			c-0.11588-0.08735-0.23175-0.17291-0.34941-0.26027c-0.00534-0.00356-0.01248-0.00891-0.01782-0.01247
			c-0.03209-0.02318-0.06418-0.04814-0.09627-0.07131c-0.19075-0.13905-0.38327-0.2781-0.57759-0.41536
			c-0.15688-0.11231-0.31554-0.22462-0.47598-0.33694c-0.55441-0.38862-1.12309-0.77369-1.70425-1.15519
			c-0.13905-0.0909-0.27809-0.18004-0.41714-0.26917c-0.164-0.10876-0.32979-0.21393-0.49738-0.31911
			c-0.13013-0.082-0.26027-0.16401-0.39218-0.24602c-0.06596-0.04278-0.13371-0.08378-0.20145-0.12478
			c-0.22818-0.14262-0.45995-0.28345-0.69347-0.42428c-0.14618-0.08913-0.29236-0.1765-0.44032-0.26385
			c-0.12836-0.07665-0.2585-0.15331-0.39041-0.22997c-0.13014-0.07665-0.26028-0.15331-0.3922-0.22819
			c-0.24423-0.14083-0.49202-0.28165-0.74159-0.42249c-0.18718-0.10518-0.37614-0.21036-0.56689-0.31553l-0.30484-0.16579
			c-0.1355-0.07488-0.27454-0.14975-0.4118-0.22283c-0.13727-0.07488-0.27632-0.14797-0.41716-0.22284
			c-0.13013-0.06953-0.26025-0.13905-0.39218-0.20679c-0.3512-0.18362-0.70595-0.36546-1.06427-0.54551
			c-0.13013-0.06596-0.26205-0.13191-0.39398-0.19609c-0.19609-0.09805-0.39397-0.1961-0.59363-0.29236
			c-0.5972-0.29237-1.20509-0.57938-1.82547-0.86283c-0.49202-0.22462-0.9894-0.44746-1.49568-0.66673
			c-0.15331-0.06774-0.3084-0.13548-0.4635-0.20144c-0.16043-0.06953-0.32088-0.13726-0.48311-0.20501
			c-0.16045-0.06953-0.32445-0.13727-0.48668-0.20501c-0.18182-0.07487-0.36366-0.15153-0.54727-0.2264
			c-0.00179,0-0.00357-0.00178-0.00714-0.00178c-0.3387-0.13905-0.68098-0.27633-1.02682-0.41358
			c-0.03209-0.01248-0.06418-0.02496-0.09805-0.03923c-0.1337-0.05169-0.2674-0.10517-0.40289-0.15688
			c-0.1337-0.05347-0.26917-0.10517-0.40645-0.15688c-0.15154-0.05882-0.30484-0.11587-0.45815-0.17471
			c-0.15331-0.05704-0.30663-0.11588-0.46172-0.17291c-0.19075-0.0731-0.38329-0.14262-0.57581-0.21393
			c-0.03387-0.01247-0.06596-0.02496-0.09984-0.03565c-0.36545-0.13371-0.73268-0.26562-1.10349-0.39576
			c-0.20145-0.0713-0.40289-0.14083-0.60612-0.21214c-0.16756-0.05882-0.33513-0.11587-0.50449-0.17292
			c-0.23889-0.082-0.47954-0.16222-0.72198-0.24244c-0.2068-0.06953-0.41359-0.13727-0.62218-0.20502
			c-0.16757-0.05526-0.33514-0.10874-0.50449-0.16222c-0.12122-0.03922-0.24246-0.07844-0.36368-0.11767
			c-0.04813-0.01604-0.09627-0.0303-0.14439-0.04635c-0.14796-0.04634-0.29771-0.09269-0.44746-0.13905
			c-0.287-0.08913-0.57402-0.17827-0.86459-0.26562c-0.2888-0.08735-0.58116-0.17648-0.87531-0.26206
			c-0.19073-0.05704-0.38148-0.11231-0.57402-0.16757c-0.11411-0.03387-0.22997-0.06774-0.34584-0.09983
			c-0.205-0.05882-0.40823-0.11765-0.61325-0.1747c-0.82182-0.23175-1.65611-0.45637-2.50468-0.67742
			c-0.27097-0.07131-0.54372-0.13905-0.81468-0.20502c-0.27275-0.06596-0.54372-0.13013-0.8147-0.19074
			c-0.20323-0.04636-0.40645-0.09092-0.60968-0.13371c-0.15866-0.03387-0.31732-0.06774-0.47418-0.09805
			c-0.18184-0.03744-0.36189-0.07487-0.54195-0.10874c-0.27097-0.0517-0.54015-0.10162-0.81113-0.14975
			c-0.26918-0.04813-0.54016-0.09447-0.80933-0.13726c-0.23889-0.03744-0.476-0.07488-0.71487-0.10875
			c-0.05704-0.00891-0.11409-0.01782-0.17291-0.02496c-0.24245-0.03565-0.48489-0.06774-0.72734-0.09805
			c-0.26918-0.03564-0.53838-0.06774-0.80577-0.09626c-0.2692-0.0303-0.53659-0.05705-0.804-0.08379
			c-0.26918-0.02496-0.53659-0.04813-0.804-0.06953c-0.2674-0.02139-0.53481-0.03922-0.8022-0.05704
			c-0.26741-0.01782-0.53302-0.03387-0.80043-0.04457c-0.22997-0.0107-0.45994-0.02139-0.6899-0.02853
			c-0.08913-0.00356-0.17649-0.00534-0.26384-0.00713c-0.21571-0.00713-0.42963-0.01248-0.64355-0.01427
			c-0.26562-0.00534-0.53124-0.00713-0.79686-0.00713c-0.83251,0-1.66325,0.02139-2.49043,0.06062
			c-0.41536,0.02139-0.82716,0.04634-1.24075,0.07665c-0.4118,0.0303-0.8236,0.06596-1.2354,0.10518
			c-0.23176,0.02317-0.46529,0.04635-0.69704,0.0731c-0.15866,0.01782-0.31731,0.03565-0.47598,0.05526
			c-0.22462,0.02673-0.44924,0.05526-0.67386,0.08556c-0.3084,0.041-0.61502,0.08556-0.91986,0.13192
			c-0.15331,0.02318-0.30662,0.04635-0.45815,0.07131c-0.15331,0.02318-0.30662,0.04813-0.45994,0.07487
			c-0.40645,0.06953-0.81291,0.14262-1.21935,0.22105c-0.2282,0.04456-0.45459,0.08913-0.68099,0.13548
			c-0.22462,0.04636-0.44746,0.09449-0.6703,0.14262c-0.01426,0.00357-0.02852,0.00713-0.04278,0.00892
			c-0.04279,0.00891-0.08557,0.01961-0.12836,0.02852c-0.15687,0.03566-0.31374,0.07131-0.46883,0.10696
			c-0.03387,0.00893-0.06953,0.01605-0.1034,0.02318c-0.03209,0.00714-0.06596,0.01605-0.09805,0.02318
			c-0.01605,0.00357-0.03387,0.00891-0.04992,0.01248c-0.15866,0.03744-0.31554,0.07487-0.47419,0.11409
			c-0.16936,0.041-0.33693,0.08379-0.50629,0.12656c-0.21035,0.05349-0.42071,0.11054-0.63285,0.1658
			c-0.21036,0.05704-0.42071,0.11408-0.63107,0.17291c-0.21037,0.05884-0.41894,0.11944-0.6293,0.18005
			c-0.21036,0.06061-0.42072,0.12301-0.62929,0.18718c-0.41894,0.12479-0.83608,0.25671-1.25323,0.39577
			c-0.15688,0.05169-0.31197,0.10339-0.46885,0.15509c-0.46885,0.15688-0.93413,0.32088-1.40119,0.49203
			c-0.15509,0.05704-0.31018,0.11408-0.46528,0.17113c-0.46706,0.17114-0.92879,0.35298-1.39228,0.53838
			c7.57821,5.89358,11.06159,13.79624,11.47339,22.03226c0.05705,1.12666-1.31919,1.49924-1.92709,0.78439
			c-2.03584-8.55156-7.60852-16.06738-15.81782-19.92869l-0.00409-0.00202c-1.05698-0.50083-2.15849-0.93752-3.3028-1.30826
			c-1.1124-0.41714-2.32105-0.75408-3.62064-1.02505c-0.01248-0.00356-0.02318-0.00713-0.03387-0.00713
			c-0.45815-0.1123-0.91095-0.21214-1.35841-0.30484c-4.53159-0.93591-8.50521-0.99474-12.54836-0.72377
			c-6.41055,0.42963-12.99759,1.68464-22.25689,1.5759c-2.17131-0.02496-4.44781-0.09805-6.76174-0.18005
			c-4.49951-0.15688-9.13272-0.34585-13.36305-0.26741c-0.00179,0-0.00356,0-0.00356,0
			c1.44219-2.87191,2.97708-5.70103,4.59755-8.48204c0.16936-0.2888,0.33871-0.57759,0.50806-0.8646
			c1.59729-2.70434,3.27658-5.36234,5.03432-7.96327c1.05179-1.5563,2.1321-3.09476,3.24094-4.6136
			c0.74695-1.02328,1.50459-2.03584,2.27293-3.03771c0.28879-0.37793,0.57937-0.75229,0.87351-1.12666
			c0.27988-0.36009,0.56155-0.71663,0.84499-1.07317c0.20145-0.25493,0.40289-0.50629,0.60612-0.75943
			c0.38863-0.48133,0.77903-0.95909,1.17301-1.43507c0.19966-0.24245,0.40111-0.48311,0.60077-0.72556
			c0.00534-0.00713,0.0107-0.01248,0.01604-0.01961c0.35832-0.42963,0.71843-0.85748,1.08388-1.28175
			c2.07684-2.43516,4.22676-4.80435,6.44799-7.10581c0.65247-0.67564,1.31028-1.34592,1.97522-2.01086
			c0.66494-0.66496,1.33524-1.32276,2.01088-1.97523c2.30145-2.22123,4.67064-4.37116,7.1058-6.44799
			c0.42607-0.36367,0.85213-0.72377,1.28176-1.08388c0.00713-0.00534,0.01247-0.0107,0.0196-0.01604
			c0.24245-0.19967,0.48312-0.4011,0.72556-0.60077c0.47598-0.39397,0.95551-0.78438,1.43506-1.173
			c0.25314-0.20323,0.50451-0.40467,0.75943-0.60612c0.35654-0.28344,0.71307-0.56511,1.07318-0.84499
			c0.37436-0.29415,0.74873-0.58473,1.12665-0.87352c1.00188-0.76834,2.01445-1.52598,3.03771-2.27293
			c1.51886-1.10883,3.05731-2.18914,4.6136-3.24093c2.60094-1.75773,5.25894-3.43702,7.96328-5.03432
			c0.28701-0.16936,0.57581-0.33871,0.8646-0.50806c5.73492-3.34254,11.68197-6.31964,17.76807-8.89384
			c9.44291-3.99323,19.32613-7.06123,29.3716-9.11668c1.90926-0.39041,3.82921-0.74516,5.75809-1.06426
			c2.62411-0.43498,5.27142-0.804,7.93652-1.10706c0.60791-0.06953,1.21759-0.13549,1.82727-0.19609
			c0.15154-0.01605,0.30484-0.03209,0.45636-0.04635c0.2282-0.02318,0.45459-0.04457,0.68277-0.06596
			c0.3298-0.03209,0.66139-0.0624,0.99118-0.09092c0.62573-0.05526,1.25323-0.10697,1.88074-0.15509
			c0.03387-0.00179,0.06773-0.00535,0.10161-0.00714c0.66139-0.04991,1.32454-0.09448,1.98592-0.13726
			c0.3815-0.02496,0.76477-0.04635,1.14627-0.06774c0.28168-0.01427,0.56155-0.0303,0.84323-0.04457
			c0.36366-0.01783,0.72911-0.03566,1.09277-0.04992c0.2995-0.01425,0.59898-0.02673,0.89848-0.03743
			c0.77725-0.02853,1.55629-0.05349,2.33531-0.06953c0.2175-0.00535,0.43498-0.0107,0.65425-0.01427
			c0.99475-0.01961,1.99127-0.02852,2.99136-0.02852c1.00008,0,1.99661,0.00891,2.99135,0.02852
			c0.21927,0.00357,0.43675,0.00891,0.65425,0.01427c0.77904,0.01604,1.55806,0.041,2.33533,0.06953
			c0.29948,0.0107,0.59897,0.02318,0.89848,0.03743c0.36366,0.01427,0.7291,0.03209,1.09277,0.04992
			c0.28168,0.01426,0.56155,0.0303,0.8432,0.04457c0.38153,0.02139,0.76479,0.04278,1.14629,0.06774
			c0.66139,0.04278,1.32454,0.08735,1.98592,0.13726c0.03386,0.00179,0.06775,0.00535,0.10162,0.00714
			c0.62749,0.04812,1.255,0.09983,1.88072,0.15509c0.3298,0.02852,0.66138,0.05883,0.99117,0.09092
			c0.2282,0.02139,0.45461,0.04278,0.68279,0.06596c0.15154,0.01427,0.30484,0.0303,0.45639,0.04635
			c0.60966,0.0606,1.21933,0.12656,1.82726,0.19609c2.66512,0.30306,5.31239,0.67208,7.93651,1.10706
			c1.92886,0.3191,3.84883,0.67385,5.75809,1.06426c10.04547,2.05545,19.9287,5.12345,29.3716,9.11668
			c6.08614,2.57421,12.03316,5.5513,17.7681,8.89384c0.28877,0.16935,0.57759,0.3387,0.86458,0.50806
			c2.70435,1.59729,5.36237,3.27659,7.96329,5.03432c1.5563,1.05179,3.09476,2.1321,4.61362,3.24093
			c1.02325,0.74695,2.0358,1.50459,3.03769,2.27293c0.37793,0.2888,0.75229,0.57937,1.12665,0.87352
			c0.36011,0.27988,0.71664,0.56155,1.07318,0.84499c0.25494,0.20144,0.50629,0.40289,0.75943,0.60612
			c0.48135,0.38863,0.95911,0.77903,1.43506,1.173c0.24246,0.19967,0.48312,0.4011,0.72559,0.60077
			c0.00711,0.00534,0.01248,0.0107,0.01959,0.01604c0.42963,0.35832,0.85745,0.71843,1.28177,1.08388
			c2.43515,2.07683,4.80435,4.22675,7.10577,6.44799c0.67566,0.65247,1.34595,1.31027,2.01089,1.97523
			c0.66492,0.66494,1.32275,1.33523,1.97522,2.01086c2.22122,2.30146,4.37115,4.67065,6.44797,7.10581
			c0.36368,0.42606,0.72379,0.85212,1.08389,1.28175c0.00537,0.00713,0.01071,0.01247,0.01605,0.01961
			c0.19965,0.24245,0.40109,0.4831,0.60077,0.72556c0.39395,0.47598,0.78436,0.95552,1.173,1.43507
			c0.20322,0.25314,0.40469,0.5045,0.60611,0.75943c0.28345,0.35654,0.56512,0.71307,0.845,1.07317
			c0.29413,0.37437,0.58472,0.74873,0.8735,1.12666c0.76834,1.00187,1.52597,2.01443,2.27295,3.03771
			c1.10883,1.51884,2.18915,3.0573,3.24094,4.6136c1.75772,2.60094,3.43701,5.25893,5.0343,7.96327
			c0.16934,0.28701,0.33868,0.57581,0.50806,0.8646c3.34256,5.73491,6.31967,11.68198,8.89386,17.76807
			c3.99319,9.44292,7.06122,19.32615,9.11667,29.3716c0.39041,1.90927,0.74518,3.82922,1.06427,5.7581
			c0.435,2.62411,0.80399,5.27141,1.10706,7.93652c0.06952,0.60791,0.1355,1.21759,0.19608,1.82726
			c0.01605,0.15154,0.0321,0.30486,0.04636,0.45638c0.02319,0.22818,0.04456,0.45457,0.06598,0.68277
			c0.03207,0.32979,0.06238,0.66138,0.09091,0.99118c0.05527,0.62572,0.10693,1.25323,0.15509,1.88074
			c0.00177,0.03386,0.00534,0.06773,0.00711,0.10161c0.04993,0.66138,0.09451,1.32454,0.13727,1.98592
			c0.02496,0.3815,0.04636,0.76477,0.06775,1.14627c0.01425,0.28168,0.03033,0.56155,0.04459,0.84322
			c0.01782,0.36368,0.03564,0.72913,0.0499,1.09279c0.01428,0.29948,0.02676,0.59898,0.03745,0.89848
			c0.02853,0.77725,0.05347,1.55627,0.06952,2.33531c0.00537,0.21748,0.01071,0.43677,0.01428,0.65425
			c0.01959,0.99474,0.0285,1.99127,0.0285,2.99135c0,1.00009-0.00891,1.99663-0.0285,2.99135
			C332.16519,178.71846,332.15985,178.93594,332.15448,179.15344z M309.84769,183.73671l-0.09271,1.00903l-0.02496,0.27452
			c-0.00891,0.08557-0.01245,0.19609-0.0285,0.25137l-0.07486,0.39754c-0.11053,0.52766-0.27811,1.03754-0.45105,1.53488
			c-0.17648,0.49736-0.39395,0.97691-0.6489,1.43152c-0.50272,0.91095-1.15161,1.71672-1.84863,2.39949
			c-0.70416,0.6774-1.48499,1.21577-2.28363,1.56163c-0.79327,0.34943-1.57056,0.57759-2.34247,0.61327
			c-0.38684,0.02136-0.76297,0.00711-1.14984-0.03746c-0.42426-0.05347-0.83249-0.12834-1.22824-0.23174
			c-0.78973-0.20502-1.526-0.54907-2.17844-1.00722c-0.64716-0.4635-1.24255-0.99652-1.715-1.62225
			c-0.47238-0.62393-0.8414-1.31386-1.06424-2.0394c-0.22284-0.72377-0.37259-1.46359-0.3512-2.23549
			c0.00714-0.38509,0.0303-0.76656,0.09091-1.13737c0.05884-0.37257,0.15686-0.73267,0.27988-1.08386
			c0.23709-0.70595,0.59006-1.38159,1.0625-1.97701c0.45816-0.60254,1.02148-1.13736,1.6561-1.55806
			c0.6293-0.43321,1.32635-0.76479,2.07327-0.96445c0.37439-0.09627,0.75943-0.164,1.15518-0.20145
			c0.10519-0.00357,0.18542-0.01961,0.31198-0.01961c0.0802,0,0.16043,0,0.24246-0.00179v0.02139
			C304.05038,179.11421,307.03995,180.56711,309.84769,183.73671z M62.81319,139.48859
			c-0.85213-0.80045-1.72209-1.61868-2.60986-2.45299c-0.69703-0.65425-1.40654-1.29066-2.12318-1.91104
			c-6.82415-5.89893-14.26866-10.28435-16.69312-13.74811c-0.73091-1.04465-1.00544-2.00553-0.67029-2.89866
			c0.35832-0.95374,1.30136-1.53667,2.69543-1.86647c4.69382-1.1124,14.48971,0.64355,24.18753,0.71129
			c2.35316,0.01605,4.61896-0.02139,6.77422-0.06239c3.61709-0.06953,6.9204-0.15154,9.79053-0.00714l0.00535,0.00179h0.00179
			c2.59738,0.13013,4.84178,0.44567,6.6423,1.12309c9.15054,3.43346,13.78377,13.63402,10.3503,22.78456
			c-3.43525,9.15056-13.6358,13.78377-22.78635,10.3503c-4.36404-1.63829-9.51066-6.33568-15.56289-12.02246
			c0.03387-0.04457,0.06952-0.09091,0.10339-0.13547C62.88272,139.39944,62.84706,139.44402,62.81319,139.48859z
			 M125.83842,171.92819c0.02674-0.41893,0.10161-0.80756,0.16936-1.13914c0.00356-0.01604,0.00713-0.03387,0.01247-0.04991
			c0.08736-0.33514,0.18719-0.69525,0.31731-1.04465c0.13192-0.36011,0.2888-0.69525,0.42607-0.98941
			c0.00535-0.01248,0.01069-0.02316,0.01604-0.03386c0.17302-0.33179,0.36033-0.65108,0.52084-0.92036
			c0.00814-0.01279,0.01605-0.02522,0.02419-0.03802c0.2016-0.29796,0.40498-0.58699,0.60837-0.8564
			c0.09627-0.12656,0.19254-0.23888,0.27988-0.33693l0.07845-0.09268c0.04457-0.04993,0.07666-0.08736,0.11052-0.12659
			c0.07666-0.08913,0.16402-0.18896,0.26207-0.28879c0.25493-0.27098,0.51518-0.52411,0.7719-0.75229
			c0.00891-0.00893,0.01784-0.01605,0.02675-0.02496c0.06416-0.05171,0.12834-0.10696,0.19431-0.16045
			c0.20145-0.16936,0.40823-0.34406,0.63998-0.50806c2.29968-1.70604,5.21437-2.64374,8.21107-2.64374h0.03922
			c3.01274,0.00179,5.93993,0.94304,8.24138,2.65265c0.22997,0.164,0.43498,0.33693,0.63464,0.5045l0.19788,0.16579
			c0.00891,0.00713,0.01782,0.01427,0.02673,0.02139c0.24423,0.21748,0.49738,0.46349,0.7719,0.75407
			c0.09807,0.09804,0.18541,0.19966,0.26207,0.28879c0.03387,0.03745,0.06596,0.07666,0.09804,0.11232l0.03387,0.03922
			c0.10875,0.1248,0.22284,0.25314,0.33336,0.40111c0.22997,0.30305,0.42964,0.58472,0.61325,0.86282
			c0.00891,0.0107,0.01605,0.02318,0.02318,0.03386c0.17114,0.28703,0.35475,0.59543,0.52232,0.92166
			c0.00357,0.00891,0.00891,0.01782,0.01248,0.02673c0.14618,0.3102,0.2995,0.64,0.42963,0.9894
			c0.13882,0.37263,0.2402,0.74712,0.32527,1.06595c0.00214,0.00906,0.00412,0.01749,0.00626,0.02655
			c0.06749,0.32857,0.14207,0.71202,0.17262,1.13094c0.02014,0.27637-0.08739,0.54738-0.29378,0.73227l-0.34229,0.30663
			c-0.35655,0.32089-0.90384,0.30128-1.2372-0.04457c-0.70238-0.72913-1.4832-1.38693-2.32104-1.95204
			c-0.84679-0.58829-1.73457-1.07852-2.64909-1.46538c-1.01256-0.42072-1.95383-0.71663-2.8719-0.90204
			c-0.97691-0.19966-1.98236-0.30127-2.98779-0.29414c-1.01791-0.00357-2.02335,0.09448-2.99313,0.29414
			c-0.91631,0.18362-1.85756,0.47954-2.87906,0.90561c-0.91273,0.38329-1.79872,0.87529-2.6348,1.45467
			c-0.84679,0.57404-1.62761,1.23006-2.33177,1.95918c-0.1747,0.18184-0.40823,0.27275-0.64176,0.27275
			c-0.21214,0-0.42606-0.07487-0.59542-0.22818l-0.34228-0.30663C125.92755,172.46835,125.81881,172.20273,125.83842,171.92819z"/>
		<path class="st1" d="M241.9165,198.6953c-0.00713-0.28525-0.01962-0.57938-0.03745-0.87888
			c-0.00711-0.11052-0.01425-0.22284-0.02139-0.33514c-0.00893-0.16223-0.02139-0.32803-0.03564-0.49559
			c-0.00714-0.082-0.01428-0.16579-0.02141-0.24959c0.00179-0.0089,0-0.01782-0.00179-0.02675
			c-0.00356-0.05882-0.00891-0.11584-0.01602-0.1747c0-0.01782-0.00179-0.03564-0.00536-0.05348
			c-0.01605-0.16936-0.03209-0.34048-0.04991-0.51161c-0.01785-0.17291-0.03743-0.34764-0.05885-0.52234
			c0-0.00179,0-0.00179,0-0.00357c-0.041-0.34761-0.08913-0.70236-0.14081-1.0589c-0.02853-0.2068-0.06061-0.41359-0.0945-0.62395
			c-0.02318-0.15331-0.04811-0.30664-0.07487-0.46172c-0.03029-0.18184-0.06236-0.36546-0.09448-0.54907
			c-0.06595-0.36725-0.13547-0.73804-0.21214-1.11063c-0.04813-0.23889-0.09805-0.47774-0.14973-0.71843
			c-0.04993-0.22818-0.10161-0.45813-0.15509-0.68811c-0.11053-0.48309-0.22998-0.96622-0.35832-1.44754
			c-0.04279-0.16756-0.08736-0.33514-0.1337-0.50273c-0.04993-0.18538-0.10164-0.37079-0.15511-0.55618
			c-0.03387-0.11766-0.06773-0.23711-0.10338-0.35297c-0.06955-0.24068-0.14262-0.47955-0.21748-0.71843
			c-0.06062-0.19432-0.12123-0.38686-0.18362-0.57759c-0.03032-0.0927-0.06062-0.18719-0.0927-0.27989
			c-0.03032-0.0927-0.06242-0.18541-0.0945-0.27811c-0.06418-0.18361-0.12834-0.36722-0.19254-0.55083
			c-0.05881-0.1658-0.11943-0.32982-0.18005-0.4938c-0.06416-0.1747-0.13193-0.34943-0.19786-0.52055
			c-0.03743-0.09627-0.07487-0.19073-0.11234-0.28523c-0.04634-0.11409-0.09268-0.22997-0.13902-0.34229
			c-0.04636-0.11409-0.09271-0.22639-0.14085-0.33871c-0.00711-0.01961-0.01425-0.03564-0.02316-0.05348
			c-0.02316-0.05704-0.04814-0.11407-0.07307-0.17113c-0.06421-0.14796-0.12836-0.29591-0.19434-0.44211
			c-0.05882-0.12836-0.11586-0.25491-0.1747-0.3815c-0.05884-0.12479-0.11765-0.24959-0.17827-0.37257
			c-0.04993-0.10519-0.10162-0.20856-0.15331-0.31197c-0.11768-0.23355-0.23531-0.45996-0.35475-0.68279
			c0-0.00179,0-0.00179,0-0.00179c-0.23888-0.44032-0.48491-0.86279-0.73804-1.26213
			c-0.04993-0.08023-0.10164-0.15866-0.15332-0.23711c-0.03209-0.04991-0.06416-0.09804-0.09627-0.14618
			s-0.06418-0.09448-0.09625-0.14082c-0.03922-0.05705-0.07845-0.11411-0.11766-0.16936
			c-0.04993-0.07132-0.09982-0.14084-0.15152-0.21036c-0.05885-0.08023-0.11768-0.16045-0.17827-0.23889
			c-0.07489-0.09982-0.15155-0.19431-0.22641-0.28879c-0.0731-0.09093-0.14798-0.17827-0.22105-0.26384
			c-0.03209-0.03745-0.06598-0.07664-0.09984-0.11409c-0.0535-0.06239-0.10875-0.12302-0.164-0.18361
			c-0.06241-0.06775-0.1248-0.13371-0.18718-0.19789c-0.00179-0.00356-0.00536-0.00534-0.00714-0.00713
			c-0.05704-0.05884-0.11407-0.11588-0.17113-0.17114c-0.05707-0.05527-0.11589-0.11053-0.17293-0.164
			c-0.05884-0.05348-0.11588-0.10696-0.1747-0.15866c-0.041-0.03387-0.08202-0.06953-0.12302-0.10339
			c-0.03566-0.03032-0.0713-0.06062-0.10695-0.08736c-0.03564-0.02852-0.07132-0.05705-0.10698-0.08379
			c-0.28342-0.22284-0.57224-0.4118-0.86815-0.56868c-0.04636-0.02496-0.09271-0.04991-0.13905-0.0713
			c-0.06242-0.0303-0.12657-0.06061-0.18898-0.08914c-0.06418-0.02852-0.12834-0.05527-0.19252-0.08022
			c-0.05347-0.02139-0.10518-0.041-0.15866-0.05882c-0.18719-0.06596-0.37793-0.11945-0.56866-0.15688
			c-0.03568-0.00714-0.0731-0.01427-0.10876-0.01961c-0.10693-0.01962-0.2157-0.03387-0.32623-0.0428
			c-0.02357-0.00224-0.04716-0.00378-0.07031-0.00505c-0.07521-0.00415-0.15062-0.00879-0.22595-0.00912
			c-0.24905-0.00111-0.49623,0.00964-0.73947,0.03023c-0.04991,0.00536-0.09984,0.00891-0.14975,0.01427
			c-0.09093,0.00891-0.18184,0.01961-0.27098,0.03209c-0.08556,0.01247-0.17113,0.02495-0.2567,0.0392
			c-0.19075,0.03209-0.37793,0.06953-0.56509,0.11589c-0.07491,0.01782-0.15155,0.03743-0.22641,0.05704
			c-0.05348,0.01427-0.10698,0.02852-0.16046,0.04457c-0.05347,0.01427-0.10693,0.0303-0.16043,0.04814
			c-0.06062,0.01782-0.12299,0.03743-0.18362,0.05882c-0.09805,0.03209-0.19431,0.06595-0.29057,0.10161
			c-0.10518,0.03923-0.20859,0.08023-0.31197,0.123c-0.11232,0.04457-0.22461,0.09271-0.33514,0.14441
			c-0.09271,0.04277-0.18719,0.08734-0.27988,0.13191c-0.10161,0.04993-0.20145,0.10161-0.30307,0.15509
			c-0.09982,0.0535-0.19965,0.10875-0.2977,0.16402c-0.19789,0.1123-0.39218,0.22997-0.58473,0.35654
			c-0.00179,0-0.00179,0-0.00357,0.00356c-0.00177,0-0.00177,0-0.00177,0c-0.16579,0.10698-0.32802,0.2175-0.49025,0.33516
			c-0.09805,0.06952-0.19609,0.14084-0.29413,0.2157c-0.06241,0.04814-0.1248,0.09627-0.18718,0.14439
			c-0.08022,0.06239-0.15868,0.12659-0.23891,0.19075c-0.06236,0.0517-0.12656,0.10341-0.18895,0.15511
			c-0.05168,0.04277-0.10161,0.08556-0.15152,0.12834c-0.09807,0.08557-0.19791,0.17293-0.29594,0.26028
			c-0.09981,0.09091-0.19966,0.18182-0.30128,0.27631c-0.07307,0.06953-0.14616,0.13905-0.21748,0.21036
			c-0.15152,0.14618-0.29947,0.29414-0.44745,0.44746c-0.06772,0.06952-0.13548,0.13905-0.20322,0.21034
			c-0.00534,0.00536-0.01248,0.01248-0.01784,0.01962c-0.07307,0.07666-0.14616,0.15509-0.21927,0.23531
			c-0.07307,0.07843-0.14441,0.15688-0.2157,0.23711c-0.0713,0.08022-0.14262,0.16222-0.21391,0.24422
			c-0.28882,0.32803-0.5687,0.66496-0.845,1.01079c-0.08734,0.11052-0.17648,0.22284-0.26382,0.33514
			c-0.08737,0.11232-0.17473,0.22641-0.26207,0.3405c-0.08736,0.11588-0.1747,0.23174-0.26205,0.34941
			c-0.07132,0.09448-0.14084,0.19073-0.21037,0.287c-0.28879,0.39575-0.57224,0.79686-0.84856,1.20332
			c-0.10161,0.14796-0.2032,0.29771-0.30305,0.44745c-0.1212,0.17827-0.23889,0.35832-0.35832,0.53838
			c-0.01961,0.03032-0.03922,0.06062-0.05884,0.09093c-0.13725,0.21034-0.27274,0.4207-0.40822,0.63107
			c-0.61682,0.96085-1.20511,1.91997-1.76843,2.83981c-0.13371,0.21927-0.26741,0.43498-0.39754,0.6489
			c-0.08914,0.14262-0.17648,0.28523-0.26205,0.42607c-0.10519,0.17113-0.21034,0.33871-0.31375,0.5063
			c-0.62216,1.00185-1.21402,1.92172-1.7827,2.70612c-8.12906,11.22202-14.30252,13.54843-14.30252,22.52785
			c0,4.39076,2.71504,7.24307,5.74918,7.24307c0.03743,0,0.07486,0,0.11232-0.00179c0.1123,0,0.22459-0.00179,0.33693-0.00536
			c0.10339-0.00357,0.20677-0.00714,0.31018-0.01247c0.02495,0,0.05171,0,0.07664-0.00357
			c0.08914-0.00357,0.17648-0.0089,0.26384-0.01604c0.14441-0.00893,0.28882-0.02141,0.43141-0.03568
			c0.06061-0.00533,0.11945-0.01247,0.18005-0.01782c0.13014-0.01427,0.25851-0.03029,0.38686-0.04813
			c0.0927-0.01247,0.18362-0.02495,0.27454-0.03922c0.10338-0.01607,0.205-0.03207,0.30663-0.04993
			c0.10338-0.01782,0.20677-0.03743,0.3084-0.05704c0.05882-0.0107,0.11765-0.02318,0.17648-0.03566
			c0.26027-0.05347,0.51518-0.11407,0.76836-0.18005c0.08557-0.02138,0.16934-0.04457,0.25313-0.06772
			c0.01427-0.00357,0.0285-0.00714,0.041-0.01071c0.1123-0.03207,0.22461-0.06418,0.33514-0.09805
			c0.03387-0.0089,0.06775-0.01961,0.10161-0.03029c0.13905-0.04279,0.27632-0.08736,0.4118-0.13371
			c0.03743-0.01248,0.07486-0.02495,0.1123-0.03743c0.03746-0.01248,0.07489-0.02498,0.11232-0.03923
			c0.22641-0.07845,0.45102-0.16223,0.67386-0.2478c0.08557-0.03386,0.17113-0.06772,0.2567-0.10338
			c0.12137-0.04813,0.24026-0.09874,0.35959-0.14888c0.12283-0.05162,0.32469-0.13475,0.44398-0.19409
			c0.00075-0.00037,0.00148-0.00073,0.00221-0.0011c0.13548-0.05882,0.26918-0.11943,0.40288-0.18184
			c0.01782-0.0089,0.03743-0.01781,0.05707-0.02672c0.08913-0.041,0.17827-0.08379,0.2674-0.12657
			c0.17291-0.08202,0.34406-0.1658,0.51518-0.25139c0.17113-0.08556,0.34229-0.17291,0.5152-0.26027
			c0.06596-0.03386,0.1337-0.06772,0.19966-0.10338c0.10162-0.05168,0.20502-0.10518,0.3084-0.16045
			c0.13728-0.07129,0.27277-0.14262,0.41003-0.2157c0.14798-0.07843,0.2977-0.15866,0.44746-0.23891
			c0.64175-0.34404,1.29601-0.69701,1.96988-1.05354c0.17648-0.09271,0.35475-0.18541,0.53481-0.27811
			c0.12299-0.06418,0.24777-0.12836,0.37257-0.19254c0.18895-0.09625,0.37971-0.19252,0.57224-0.287
			c0.0089-0.00536,0.01782-0.00893,0.02675-0.0125c0.20145-0.10161,0.40645-0.20142,0.61324-0.29948
			c0.19968-0.09627,0.40111-0.19075,0.60611-0.28346c0.07846-0.03743,0.15866-0.07307,0.24066-0.10872
			c0.08023-0.03745,0.16045-0.07309,0.24246-0.10876c0.08022-0.03564,0.16222-0.07307,0.246-0.10695
			c0.08202-0.03743,0.16402-0.0731,0.24782-0.10696c0.08913-0.03922,0.17827-0.07664,0.26918-0.11409
			c0.03922-0.01604,0.08022-0.03209,0.11943-0.04814c0.11409-0.04811,0.22997-0.09445,0.34761-0.14081
			c0.24959-0.09984,0.50273-0.19791,0.76122-0.29239c0.10698-0.041,0.21391-0.08022,0.32268-0.11765
			c0.11407-0.041,0.2282-0.08199,0.34404-0.1212c0.11589-0.04103,0.23177-0.08025,0.34941-0.11946
			c0.22818-0.07487,0.45995-0.14973,0.69527-0.22107c0.12836-0.03922,0.2567-0.07843,0.38684-0.11586
			c11.58748-3.3871,17.04608-7.90446,17.04608-15.61102c0-0.13191-0.00179-0.26741-0.00357-0.40289
			C241.92007,198.88603,241.91829,198.79155,241.9165,198.6953z M221.49222,207.32886
			c-0.78082,0.78081-2.56529,1.66681-4.21249,2.0697c-1.59908,0.3922-3.06979,0.328-3.36394-0.7327
			c-0.89134-3.20883,5.70461-15.86594,8.64604-12.74623c0.27454,0.29059,0.48311,0.95552,0.61324,1.83083
			C223.59937,200.58315,223.19469,205.62637,221.49222,207.32886z M235.21893,202.51559
			c-0.7505,1.60799-5.6012,3.84703-6.9525,2.49576c-0.34047-0.3405-0.37614-1.30493-0.205-2.56172
			c0-0.00179,0-0.00179,0.00177-0.00357c0.50986-3.7383,2.85767-10.06151,4.54231-10.28613
			c0.02138-0.00179,0.04279-0.00533,0.06238-0.00711C235.59686,191.87651,236.45789,199.86116,235.21893,202.51559z"/>
	</g>
</g>
</svg>
