<svg width="115" height="78" viewBox="0 0 115 78" fill="none" xmlns="http://www.w3.org/2000/svg">
<g clip-path="url(#clip0_362_365)">
<path d="M0 39.2235C0.363953 36.5061 0.976606 33.7737 1.03727 31.0412C1.13735 26.7509 2.09273 22.6114 2.79637 18.4267C2.92375 17.6628 3.69109 17.0046 4.16423 16.2981C6.1508 13.309 9.0412 12.2493 12.5169 12.3519C24.4698 12.7022 36.4226 13.1067 48.3784 13.3151C51.466 13.3664 54.5656 12.7988 57.6562 12.4727C65.0364 11.6957 72.4165 10.9067 79.7967 10.1056C81.8075 9.8882 83.8214 9.68893 85.8261 9.42927C86.1962 9.38097 86.7876 9.14244 86.8391 8.89788C86.9635 8.29402 87.0515 7.52109 86.7603 7.0682C86.1537 6.13826 85.2651 5.40458 84.5614 4.53201C84.2689 4.16642 84.087 3.72556 84.0367 3.26089C83.9973 2.84121 84.1307 2.09243 84.34 2.02299C84.9284 1.84485 85.7139 1.7422 86.2326 1.99279C87.5398 2.62382 88.7226 3.50243 90.0025 4.20894C90.5173 4.48901 91.0904 4.64612 91.6767 4.66787C93.9999 4.71014 96.4809 5.17813 98.607 4.52295C100.681 3.88588 102.398 2.08035 104.26 0.773005C105.516 -0.105604 106.026 -0.190146 107.736 0.289919C107.815 1.79956 107.651 3.07973 105.995 3.84663C104.685 4.45048 103.52 5.37438 102.171 6.23185C102.474 6.57001 102.72 6.87497 102.99 7.15576C106.629 10.9319 110.261 14.7039 113.884 18.472C114.933 19.5559 115.315 20.6489 114.712 22.1736C113.477 25.2986 113.553 25.3348 110.193 25.7303C108.555 25.9236 106.902 26.0111 105.279 26.2829C104.07 26.4698 102.888 26.7971 101.755 27.2581C99.071 28.4024 96.4293 29.6433 93.8058 30.9205C93.2204 31.2103 92.7325 31.6635 92.4016 32.2248C89.6719 37.1583 87.0333 42.131 84.3127 47.0676C83.9076 47.7668 83.3712 48.3818 82.7325 48.8791C81.2434 50.0687 79.648 51.1255 78.1589 52.3151C77.7567 52.6643 77.4905 53.143 77.4067 53.6677C77.0003 56.687 76.6242 59.7364 76.3573 62.7799C76.2871 63.6525 76.4416 64.5285 76.8062 65.3251C78.0376 67.9177 79.3518 70.472 80.749 72.988C81.3859 74.1384 82.3019 75.1348 83.0237 76.2458C83.1271 76.4135 83.1952 76.6003 83.2239 76.7949C83.2525 76.9895 83.2412 77.188 83.1905 77.3781C83.1002 77.5346 82.974 77.6676 82.8222 77.7662C82.6704 77.8649 82.4973 77.9264 82.317 77.9457C80.8582 78.0061 79.3933 77.9789 77.9314 77.9729C76.7182 77.9729 75.9297 77.369 75.5536 76.2005C74.0765 71.6233 72.5388 67.0672 71.177 62.4598C70.7433 60.9985 69.9639 60.1531 68.4717 59.7032C68.4717 60.2225 68.4535 60.7147 68.4717 61.2129C68.59 63.897 68.6931 66.5842 68.8659 69.2653C68.9145 69.8438 69.1074 70.4011 69.427 70.8866C70.3824 72.3148 71.4409 73.6734 72.4115 75.0895C72.5995 75.3672 72.7572 75.9107 72.6147 76.113C72.4849 76.2946 72.3197 76.4483 72.129 76.565C71.9383 76.6817 71.726 76.759 71.5046 76.7923C69.7849 76.8648 68.0562 76.8618 66.3486 76.7923C65.9126 76.7167 65.5232 76.4753 65.2628 76.119C64.1133 74.5943 63.9435 72.7586 63.6948 70.944C63.0063 65.9199 62.2481 60.9049 61.6142 55.8748C61.4656 54.6943 60.6891 53.9847 60.1675 53.0669C58.9391 50.9051 57.2195 50.5609 54.8568 50.8749C49.7736 51.5542 44.6449 51.9105 39.5404 52.4358C38.9928 52.494 38.47 52.6938 38.024 53.0155C35.3125 55.0747 32.1461 56.7474 31.5699 60.6845L31.2666 60.5818C30.5872 59.4406 29.9078 58.2993 29.1435 57.0312C28.3792 58.263 27.6786 59.3862 26.8688 60.6845C26.4078 59.5643 25.9589 58.6072 25.6192 57.6169C25.2189 56.4515 24.1998 56.8742 23.4386 56.7625C23.1353 56.7202 22.6803 57.161 22.4256 57.4841C21.7735 58.3144 21.8341 59.1809 22.186 60.2014C23.3991 63.7219 24.488 67.2907 25.6951 70.8172C25.9236 71.4231 26.3332 71.9448 26.8688 72.3117C28.5764 73.45 30.3567 74.4826 32.1643 75.5876C31.7792 76.424 31.2908 76.8829 30.293 76.8346C28.5733 76.7531 26.8446 76.7772 25.137 76.8346C23.8874 76.8618 23.0655 76.27 22.3103 75.325C20.0811 72.5835 19.1439 69.2864 18.0824 66.0226C17.1027 63.0033 16.0473 60.0203 15.1253 56.9919C14.822 55.9563 14.3428 55.5487 13.166 55.911C12.5594 58.42 12.1196 61.083 11.2401 63.5921C10.1816 66.6113 10.5425 69.1294 12.5473 71.6354C13.8666 73.2839 14.8159 75.2284 15.926 77.0429C15.9614 77.172 15.9817 77.3047 15.9866 77.4385C15.189 77.6196 14.3761 77.9246 13.5603 77.9638C11.7648 78.0423 9.96321 77.994 8.16467 77.9819C7.6072 77.9644 7.07474 77.7475 6.66479 77.371C6.25485 76.9945 5.99485 76.4836 5.93243 75.9318C5.39863 68.5648 4.79811 61.2008 4.41596 53.8247C4.31587 51.9648 4.73745 50.0265 5.20756 48.1968C6.25999 44.1147 5.6443 40.1564 4.68286 36.18C4.24915 34.3957 3.93069 32.5841 3.56067 30.7846L3.23615 30.8299C3.39083 32.1191 3.41206 33.4385 3.72445 34.6885C4.52515 37.895 3.93372 40.9807 3.01171 44.0241C2.78424 44.782 2.10183 45.4523 1.49524 46.035C1.0403 46.4758 0.324525 46.035 0.263867 45.3587C0.178944 44.3623 0.109185 43.3629 0.0303289 42.3666L0 39.2235Z" fill="#273037"/>
</g>
<defs>
<clipPath id="clip0_362_365">
<rect width="115" height="78" fill="white"/>
</clipPath>
</defs>
</svg>
