<svg width="104" height="61" viewBox="0 0 104 61" fill="none" xmlns="http://www.w3.org/2000/svg">
<g clip-path="url(#clip0_362_369)">
<path d="M6.74151 4.93316L6.44855 5.19753C6.71114 5.97087 6.85404 6.81614 7.25775 7.50315C8.58496 9.771 10.014 11.9777 11.3805 14.224C11.5466 14.4973 11.711 14.9038 11.6306 15.1772C10.5213 18.9539 9.09585 22.6066 6.73258 25.7881C5.38929 27.5973 3.93345 29.2699 1.37369 29.3562C0.348356 29.3922 -0.173246 30.1097 0.0464682 30.9982C0.693107 33.6095 1.38262 36.2137 2.15787 38.7873C2.50441 39.9419 3.44936 40.575 4.65869 40.6649C5.66573 40.7479 6.67687 40.7689 7.68646 40.7278C11.1973 40.5719 14.7142 40.8266 18.1667 41.4868C20.5835 41.9382 23.0361 42.3374 25.4905 42.422C27.5733 42.4921 29.6722 42.0803 31.814 41.8824C34.0808 45.83 34.3559 51.3027 32.4517 56.0902C31.9997 57.2287 31.4549 58.3311 31.0066 59.4713C30.8279 59.9084 30.8172 60.4047 30.7118 60.973C32.064 60.973 33.2234 60.9281 34.3773 60.9892C35.0918 61.027 35.4491 60.7824 35.7956 60.1242C37.8034 56.2521 39.9041 52.4304 41.8976 48.5475C42.4853 47.3983 42.8426 46.1196 43.2302 44.8769C43.4088 44.3211 43.3892 43.7043 43.4624 43.0784C43.775 43.1108 44.0376 43.1359 44.2984 43.1683C47.8996 43.6143 51.4954 44.1215 55.1037 44.4974C62.2846 45.2419 69.2369 44.3337 75.8497 41.3051C76.475 41.0174 76.8108 41.1109 77.2788 41.5677C79.8368 44.0136 82.7645 45.884 86.137 46.9631C89.5096 48.0421 92.0211 49.7489 92.2194 54.5633C92.3069 56.6765 92.5766 58.7825 92.7713 60.9155H97.2246C97.4336 59.2735 97.6819 57.6783 97.8319 56.0597C98.2553 51.497 98.5179 46.9739 95.9402 42.8086C95.0632 41.3896 95.2257 39.7369 95.8688 38.2046C96.3207 37.1255 96.878 36.1022 97.3782 35.0501C99.5736 30.4335 100.361 25.5974 99.5218 20.5366C99.2824 19.0816 98.868 17.659 98.5321 16.2203C101.424 16.1681 102.88 15.3948 103.636 13.4381C104.255 11.832 104.111 10.3123 102.91 9.00486C101.976 7.98693 100.267 7.58588 99.102 8.04089C99.6328 8.28912 100.151 8.56403 100.654 8.86458C101.572 9.46706 101.93 10.3465 101.694 11.2367C101.568 11.7183 101.292 12.1464 100.906 12.4579C100.52 12.7694 100.045 12.9478 99.5503 12.9669C97.7087 13.0856 96.419 12.1899 95.5276 10.6522C94.4659 8.84149 93.1013 7.22913 91.4941 5.88634C86.6711 1.80384 80.9978 0.165452 74.8191 -0.00540108C69.5727 -0.151076 64.4478 0.793113 59.3533 1.89916C53.2924 3.21383 47.2243 4.26053 40.9777 4.24795C37.6962 4.24795 34.3898 4.68137 31.1334 5.18314C26.9695 5.82159 23.0397 7.34129 19.1527 8.94731C18.8365 9.0786 18.3078 9.08219 18.0452 8.89875C15.4533 7.10029 12.5863 5.99244 9.52277 5.36838C8.60462 5.20112 7.67038 5.08243 6.74151 4.93316ZM77.4789 60.9604C78.7168 60.9604 80.0172 60.9784 81.3176 60.9443C81.4429 60.9273 81.5634 60.8846 81.6716 60.8187C81.7798 60.7528 81.8734 60.6651 81.9464 60.5612C83.7077 57.8779 84.9152 54.9392 85.937 51.8441L80.2208 49.0888L77.4789 60.9604ZM46.8992 49.1068L46.5241 49.1284C45.5452 51.1067 44.5592 53.076 43.6035 55.0633C43.561 55.1924 43.5445 55.3287 43.555 55.4642C43.5654 55.5998 43.6026 55.7319 43.6643 55.8528C44.4717 57.4121 45.3094 58.957 46.1526 60.4965C46.2544 60.6763 46.4491 60.9353 46.6081 60.9407C47.7459 60.9784 48.8838 60.9622 50.3093 60.9622L46.8992 49.1068Z" fill="#273037"/>
<path d="M6.74149 4.93315C7.67036 5.08242 8.6046 5.20112 9.52454 5.38816C12.588 6.01222 15.4551 7.12007 18.047 8.91853C18.3096 9.09838 18.8383 9.09837 19.1545 8.96709C23.0415 7.35747 26.9713 5.84137 31.1352 5.20292C34.3916 4.70115 37.698 4.26233 40.9795 4.26772C47.2315 4.28031 53.2942 3.23361 59.3551 1.91894C64.4496 0.812888 69.5745 -0.131301 74.8209 0.0143743C80.9997 0.19422 86.6783 1.82362 91.496 5.90612C93.1031 7.24891 94.4677 8.86127 95.5294 10.672C96.4226 12.2097 97.7105 13.1053 99.5522 12.9866C100.046 12.9676 100.522 12.7892 100.907 12.4777C101.293 12.1662 101.57 11.7381 101.696 11.2565C101.932 10.3573 101.574 9.48684 100.656 8.88436C100.153 8.58381 99.6346 8.3089 99.1038 8.06066C100.268 7.60565 101.978 8.00671 102.912 9.02464C104.113 10.3321 104.257 11.8518 103.637 13.4578C102.882 15.4145 101.426 16.1879 98.534 16.24C98.8698 17.6788 99.2842 19.1032 99.5236 20.5563C100.358 25.6172 99.57 30.4478 97.38 35.0699C96.8799 36.122 96.3225 37.1507 95.8706 38.2244C95.2275 39.7566 95.065 41.4094 95.9421 42.8284C98.5197 46.9936 98.2642 51.5168 97.8337 56.0794C97.6837 57.6873 97.4354 59.2843 97.2264 60.9353H92.7696C92.5785 58.8023 92.3052 56.6963 92.2176 54.5831C92.0193 49.7687 89.5078 48.0619 86.1353 46.9828C82.7627 45.9038 79.835 44.0316 77.277 41.5875C76.8001 41.1307 76.4643 41.0371 75.848 41.3249C69.2387 44.3535 62.2828 45.2617 55.1019 44.5172C51.4936 44.1413 47.8978 43.6341 44.2966 43.1881C44.0358 43.1557 43.7732 43.1306 43.4606 43.0982C43.3874 43.7204 43.4017 44.3373 43.2284 44.8966C42.8408 46.1394 42.4835 47.4145 41.8958 48.5673C39.897 52.4376 37.7891 56.2593 35.7849 60.1313C35.4455 60.7896 35.0865 61.0306 34.3666 60.9964C33.2126 60.9353 32.0533 60.9802 30.7011 60.9802C30.8065 60.4119 30.8261 59.9155 30.9958 59.4785C31.4442 58.3383 31.989 57.2358 32.441 56.0974C34.3451 51.3009 34.0701 45.8282 31.8032 41.8896C29.6597 42.0928 27.5626 42.5047 25.4798 42.4291C23.0307 42.3446 20.5782 41.9454 18.1559 41.4939C14.7034 40.8338 11.1865 40.5791 7.67573 40.735C6.66614 40.7761 5.65499 40.755 4.64795 40.6721C3.44577 40.5821 2.50439 39.9527 2.14713 38.7945C1.37188 36.2191 0.682366 33.6167 0.0357264 31.0054C-0.183988 30.1169 0.337609 29.3993 1.36294 29.3634C3.92092 29.277 5.37676 27.6045 6.72184 25.7952C9.08511 22.6102 10.5106 18.9611 11.6199 15.1843C11.7003 14.911 11.5359 14.5045 11.3698 14.2312C10.0033 11.9849 8.57423 9.77819 7.24701 7.51034C6.84331 6.81973 6.7004 5.97806 6.43782 5.20472L6.74149 4.93315Z" fill="#273037"/>
<path d="M77.4771 60.9604L80.2154 49.0906L85.9316 51.8459C84.9098 54.941 83.7023 57.8797 81.941 60.563C81.868 60.6669 81.7745 60.7546 81.6663 60.8205C81.5581 60.8864 81.4376 60.9291 81.3122 60.946C80.0154 60.9766 78.715 60.9604 77.4771 60.9604Z" fill="#273037"/>
<path d="M46.8993 49.1068L50.2932 60.9568C48.8642 60.9568 47.7299 60.973 46.592 60.9353C46.4331 60.9353 46.2348 60.6745 46.1365 60.491C45.2934 58.9516 44.4556 57.4067 43.6482 55.8474C43.5865 55.7265 43.5494 55.5944 43.5389 55.4588C43.5285 55.3233 43.545 55.187 43.5875 55.0579C44.5396 53.0688 45.5292 51.1013 46.5081 49.123L46.8993 49.1068Z" fill="#273037"/>
</g>
<defs>
<clipPath id="clip0_362_369">
<rect width="104" height="61" fill="white"/>
</clipPath>
</defs>
</svg>
