<svg width="76" height="88" viewBox="0 0 76 88" fill="none" xmlns="http://www.w3.org/2000/svg">
<g clip-path="url(#clip0_362_363)">
<path d="M68.1418 -4.53647e-06C68.3896 0.535301 68.6406 1.07365 68.8884 1.59983L69.6535 1.06148L70.4124 2.35412C70.5684 2.29633 70.9387 2.04998 71.0764 2.1321C71.3273 2.29938 71.4038 2.7039 71.6211 2.94722C72.6187 4.06954 72.6156 5.59333 73.249 6.86164C73.6958 7.86227 74.4237 8.71348 75.3452 9.3131C75.5797 9.4856 75.7988 9.67794 76 9.88795L75.8899 10.1921L72.1199 9.73587C72.1618 10.2057 72.1556 10.6785 72.1015 11.1471C71.9087 12.0292 71.7955 12.9872 71.3396 13.7415C71.0239 14.2224 70.8153 14.7648 70.7277 15.3324C70.6401 15.9 70.6755 16.4796 70.8316 17.0324C71.2348 18.5213 71.7874 19.9662 72.481 21.3453C74.1564 24.5629 75.1785 28.0767 75.489 31.6864C76.0245 37.076 75.9939 42.4838 74.877 47.7821C72.7503 57.9347 66.777 65.1187 57.2449 69.3434C55.6506 70.049 53.94 70.4991 52.2845 71.074C51.9785 71.1774 51.7061 71.3204 51.293 71.5028C52.8383 74.6995 54.3531 77.8718 55.9168 81.0197C56.0331 81.2478 56.486 81.3999 56.7981 81.4273C57.7957 81.5185 58.7994 81.5155 59.797 81.5885C60.1176 81.673 60.426 81.7977 60.715 81.9596L59.7052 82.4888C62.4592 82.9541 65.4703 82.6013 67.4533 85.3813L60.2039 84.773L60.158 85.0528C60.4641 85.3326 60.8007 85.5942 61.0761 85.8953C61.6024 86.4488 61.5351 87.045 61.0944 87.6016C60.6538 88.1582 60.3294 88.0821 59.8 87.5651C59.2745 87.0612 58.6577 86.6608 57.9823 86.385C57.3255 86.17 56.6437 86.0392 55.9535 85.9957C54.8893 85.9158 53.8779 85.5026 53.0648 84.8155C52.0733 83.9426 50.8065 84.1494 49.6039 84.408C49.3805 84.4536 49.1785 84.6087 48.9551 84.6391C48.6061 84.6696 48.2558 84.6817 47.9055 84.6756C48.034 84.3015 48.0677 83.8301 48.3186 83.5716C48.8097 83.1279 49.3334 82.7213 49.8854 82.355C50.2403 82.0812 50.5831 81.7892 50.9319 81.5033L50.8921 81.2235L45.6472 80.5088L45.5707 80.7034C45.8461 81.0076 46.1337 81.2965 46.3908 81.6159C46.8712 82.2029 46.7794 82.7899 46.2959 83.3191C45.7635 83.894 45.4605 83.7632 44.9617 83.1549C44.5115 82.618 43.954 82.1798 43.3246 81.8683C42.6416 81.5648 41.9214 81.3521 41.1825 81.2357C40.1667 81.0403 39.2337 80.5453 38.505 79.8153C37.4676 78.8359 36.1028 78.9028 34.7594 79.207C34.3035 79.3104 33.67 79.8153 33.4283 79.1279C33.3304 78.8481 33.8873 78.2337 34.2698 77.9113C34.8758 77.473 35.5141 77.0805 36.1793 76.7373C36.7515 76.4027 36.8617 75.9891 36.7577 75.3078C36.5006 73.6106 35.6928 72.689 34.0036 72.0229C32.2012 71.3143 30.6375 69.9943 29.0126 68.8628C28.2159 68.2462 27.4596 67.5798 26.7482 66.8676C25.8822 66.0798 24.9764 65.8548 23.7554 66.1103C21.3073 66.6212 18.9266 66.092 16.6591 65.1735C11.4784 63.0779 7.09636 59.8052 4.11279 55.1365C0.670205 49.75 -0.663984 43.7582 0.902774 37.371C1.31588 35.683 1.40462 34.1197 0.495779 32.4864C-0.330441 30.993 0.0245291 29.2715 0.373378 27.6777C1.00472 24.7008 2.18991 21.8672 3.86799 19.3227C4.5106 18.3555 4.93901 17.3883 4.633 16.1869C4.36066 15.1193 4.77683 14.2312 5.34906 13.2944C5.90988 12.3732 6.27442 11.3473 6.42009 10.2803C6.60369 8.80213 7.33811 7.92617 8.71208 7.65243C10.0004 7.39695 10.6369 6.6974 11.0683 5.48688C11.9405 3.02934 13.9815 2.63394 15.8176 4.45885C16.0556 4.70773 16.2793 4.96971 16.4877 5.24356C16.7142 5.54771 16.9253 5.85186 17.1487 6.15601C17.8433 5.22226 18.3146 5.21314 18.8164 6.27159C20.2424 9.27052 21.6103 12.2968 22.969 15.3262C24.6551 19.0885 26.2861 22.8752 27.9875 26.6315C28.8015 28.4229 30.1969 29.3414 32.2471 29.4631C36.5312 29.7186 40.7755 29.9132 44.9984 29.0464C47.8015 28.4716 50.5066 27.5956 52.2325 25.1107C52.9454 24.0766 53.3616 22.8022 53.738 21.5856C54.6101 18.7418 55.3935 15.8676 56.1861 12.9964C56.7155 11.0802 57.8079 9.55034 59.2461 8.20295C60.3753 7.1445 61.3668 5.92789 62.5633 4.94853C63.4262 4.2429 64.5156 3.80492 65.5193 3.2757C65.8234 3.15447 66.1392 3.06478 66.4618 3.00805C66.2342 2.5804 66.0398 2.13604 65.8804 1.67891C65.8437 1.35774 65.854 1.03298 65.911 0.714752C66.217 0.775582 66.5414 0.818165 66.8474 0.906369C66.9859 0.965862 67.114 1.04698 67.2268 1.14665C67.4318 0.723876 67.6093 0.35281 67.7899 -0.015213L68.1418 -4.53647e-06ZM40.6256 73.6562C40.9316 74.447 41.2896 75.253 41.5834 76.0894C41.8007 76.6977 42.1954 76.8103 42.8074 76.8498C43.8547 76.9573 44.8928 77.1402 45.9134 77.3973C46.0236 77.4186 46.097 77.6224 46.1949 77.7501L45.5431 78.1425L50.4393 79.2922L47.8137 72.7012L40.6256 73.6562Z" fill="#273037"/>
</g>
<defs>
<clipPath id="clip0_362_363">
<rect width="76" height="88" fill="white"/>
</clipPath>
</defs>
</svg>
