<svg width="46" height="49" viewBox="0 0 46 49" fill="none" xmlns="http://www.w3.org/2000/svg">
<path d="M0.0750498 48.2217C1.94395 45.1777 3.64848 42.3959 5.55669 39.2936L0 40.6663C0.170518 40.356 0.370403 40.0633 0.596777 39.7925C4.24882 36.7048 6.49292 32.6632 8.62625 28.4067C12.0971 21.5209 17.1175 15.5695 23.2773 11.0386C23.8878 10.5232 24.2857 9.7928 24.3922 8.99231C24.8925 3.9967 24.7996 3.73818 22.5769 0.523076C27.4796 -0.390844 32.143 -0.481907 35.9236 3.39952C37.2958 4.80863 38.9217 5.24195 40.7013 5.52232C42.1021 5.74078 43.4921 6.02841 45.3468 6.36703C41.3338 7.68148 37.0064 7.03335 34.6729 11.1369C37.6103 20.2397 34.3156 28.789 25.9931 33.9412C24.4601 34.8879 23.2702 36.5191 22.1481 38.0083C21.6192 38.7147 21.7479 39.7342 22.9807 40.102C24.0527 40.426 25.0926 40.9103 26.1468 41.3217L26.0181 41.8133H17.4419C17.7632 41.4318 18.1225 41.0853 18.5139 40.7792C19.5431 40.2003 20.5758 39.6323 19.9683 38.1613C19.4359 36.865 18.4424 36.6247 17.1096 37.098C21.1582 33.7337 24.6709 30.0488 26.4005 24.9367C25.4356 26.3094 24.6137 27.8205 23.4738 29.022C21.5335 31.0574 19.5967 33.2093 17.299 34.7495C12.7107 37.8226 8.84781 41.5985 5.37087 45.8549C4.08801 47.4315 2.46567 48.2945 0.0750498 48.2217Z" fill="#273037"/>
</svg>
