<svg width="42" height="49" viewBox="0 0 42 49" fill="none" xmlns="http://www.w3.org/2000/svg">
<path d="M9.99224 25.0771L7.19457 32.224C7.16063 32.0408 7.11278 31.8604 7.05146 31.6845C5.22688 26.8791 5.11237 22.0953 7.3448 17.3943C7.62028 16.8152 8.41809 16.4951 9.23021 15.8764C7.77055 13.2975 7.79919 10.2582 9.30179 7.01383C9.88494 5.77292 9.49494 4.06801 9.53072 2.57532C9.53072 1.85596 9.53072 1.16897 9.53072 0.223002C10.4251 0.535927 11.2015 0.615053 11.7167 1.02869C13.5055 2.44584 15.2728 2.30198 17.4409 1.91352C19.7556 1.49629 22.2634 1.94227 24.6461 2.29836C25.6013 2.44223 26.2525 2.4854 27.0753 1.9171C28.0771 1.21931 29.2541 0.773319 30.7925 0C30.7925 1.17616 30.7925 1.9171 30.7925 2.65804C30.7925 4.8629 30.8963 7.00302 31.7513 9.13235C32.7351 11.589 32.1448 14.0852 30.6386 16.567L32.1913 16.1174C35.0892 20.1818 35.4505 27.4546 32.9069 32.2169C32.5491 30.868 32.3058 29.6163 31.8336 28.4546C31.3613 27.2928 30.6637 26.1418 29.8731 24.6203C30.2881 27.6776 30.7639 30.253 30.9463 32.8499C31.0215 34.0332 30.4812 35.2562 30.1771 36.6769C31.4615 36.756 33.168 37.1121 34.7958 36.8963C36.4236 36.6805 38.0765 35.8964 39.8796 35.3065C40.2767 36.5007 40.6667 37.666 41.028 38.7379C37.4504 41.0219 33.7297 41.0075 29.8838 40.5003C26.9251 40.1119 26.9144 40.1874 25.8268 42.8707C24.2884 46.6653 23.9342 47.0466 20.3244 48.9457C15.8488 47.5861 14.6825 43.7195 13.4411 39.9105L12.8651 39.745L7.44857 46.7121C6.85468 46.7121 6.23218 46.2697 6.73305 44.9964C7.44857 43.198 8.16408 41.4535 8.95473 39.5724C6.17492 38.6947 3.61695 40.896 0.568828 41.4571L0 39.6011L2.65098 38.3602C2.11791 37.0582 -0.844346 37.6409 0.372042 34.9792C3.66344 36.0043 6.91549 37.8171 10.6112 36.605C8.23563 33.6556 9.63447 30.4472 10.0709 27.3036C10.2089 26.6223 10.3942 25.9517 10.6255 25.2965L9.99224 25.0771Z" fill="#273037"/>
</svg>
