<svg width="51" height="47" viewBox="0 0 51 47" fill="none" xmlns="http://www.w3.org/2000/svg">
<path d="M33.8672 16.9006C33.2619 14.1627 32.5116 11.4935 32.1093 8.77366C31.3844 3.77885 35.0596 -0.228571 39.9817 0.0101384C43.2763 0.169278 45.6068 2.27424 46.0345 5.12067L50.344 6.20572C50.6014 7.78988 49.6191 8.55666 48.3941 8.71218C47.0292 8.88993 45.6427 8.79898 44.3129 8.44452C42.5587 7.95264 41.1451 8.37943 39.3256 9.49341C40.4347 11.1861 41.4351 12.8643 42.5877 14.4304C43.675 15.9313 45.045 17.2551 46.1324 18.7705C48.9812 22.749 49.0936 27.0639 45.904 30.7422C43.9233 33.0796 41.5133 35.018 38.8037 36.4531C35.4619 38.1385 31.6888 38.9849 28.1006 40.1748C27.546 40.3629 26.9045 40.4786 26.4877 40.8367C26.0709 41.1947 25.549 41.9217 25.6432 42.3304C25.7408 42.647 25.9042 42.9396 26.1228 43.1889C26.3414 43.4382 26.6102 43.6386 26.9118 43.7771C28.7603 44.5005 30.6812 45.0539 32.566 45.6905C33.0951 45.8677 33.6026 46.1209 34.1208 46.3415C34.0846 46.4898 34.052 46.6381 34.0194 46.7863H21.4062C21.5798 46.3652 21.7895 45.9598 22.0332 45.5747C23.8201 43.2166 22.8379 40.985 19.8839 40.2218C17.1003 39.4985 14.1101 38.9451 11.7216 37.4803C7.90498 35.1402 4.50886 32.1166 0.95324 29.3569C0.592383 29.0006 0.272643 28.6051 0 28.1778C2.09857 27.9681 4.04129 27.7149 5.99488 27.61C6.53493 27.5811 7.12934 27.9283 7.64402 28.2032C12.9901 31.0749 18.6697 31.9683 24.6501 31.0966C25.1917 31.0126 25.7158 30.8404 26.2014 30.5867C20.4674 30.4998 14.8205 30.1165 9.80785 27.0169C9.80785 26.8071 9.77522 26.6154 9.80785 26.6045C13.3635 25.288 16.3754 23.1613 19.3076 20.7742C23.2619 17.5517 27.9302 16.3328 33.0371 16.9151C33.3138 16.9264 33.591 16.9216 33.8672 16.9006Z" fill="#273037"/>
</svg>
