<svg width="46" height="40" viewBox="0 0 46 40" fill="none" xmlns="http://www.w3.org/2000/svg">
<path d="M33.243 39.5884H21.8367L25.0172 36.0759C24.251 35.8807 23.8823 35.7796 23.5064 35.6892C21.5873 35.223 19.5309 35.0388 17.7888 34.2148C16.2456 33.4921 15.2951 33.4668 13.853 34.475C10.3943 36.8962 6.42596 38.1249 2.21548 38.4863C1.47467 38.4976 0.734068 38.4529 0 38.3526C2.71423 36.0614 5.30196 33.8318 7.95114 31.6816C8.48603 31.2479 9.23777 31.0492 9.91724 30.8288C15.7148 28.9401 21.0572 25.8687 25.6063 21.8089C25.9865 21.5362 26.3156 21.1986 26.5785 20.8115C21.5909 23.5435 16.7299 26.4417 10.8208 28.0389C14.8614 21.1729 18.6815 14.7187 24.7858 9.99196C25.4761 9.46074 25.9496 8.51034 26.264 7.6575C27.9193 3.19093 31.6853 -0.00361067 35.7873 3.06283e-06C37.1752 3.06283e-06 38.5919 0.498694 39.9472 0.921501C41.7109 1.47079 43.4313 2.16824 45.3468 2.86931C45.1348 3.30675 44.8636 3.71288 44.5408 4.07628C41.8555 6.41075 42.2458 9.1102 43.0229 12.2216C43.7023 14.9536 44.071 18.0036 43.5903 20.7356C42.3542 27.7896 37.8908 32.3321 31.1431 34.6412C30.5757 34.8328 29.9649 34.905 29.4084 35.1219C28.8468 35.3692 28.2991 35.6466 27.7675 35.953C28.2663 36.3939 28.7072 36.936 29.2783 37.254C30.5793 37.9767 31.9455 38.5983 33.2863 39.2596L33.243 39.5884Z" fill="#273037"/>
</svg>
