<svg width="65" height="47" viewBox="0 0 65 47" fill="none" xmlns="http://www.w3.org/2000/svg">
<path d="M63.6501 11.7678C58.7645 9.4376 53.8065 10.1891 48.8774 10.4383C47.0182 10.5359 45.1444 10.3625 43.2851 10.4383C42.5977 10.4649 41.9349 10.7006 41.386 11.1139C39.6137 12.5843 38.8489 14.6472 38.646 16.8401C38.2473 21.6632 35.6632 25.117 31.9954 27.9566C31.1872 28.5852 30.4224 29.3584 29.5019 29.7413C26.1059 31.1611 24.185 34.0441 22.1336 36.8151C21.0971 38.2169 21.8292 40.5254 23.4456 41.0926C24.6888 41.5298 25.9247 41.985 27.1642 42.4293L27.0011 42.9893H16.0774C16.7371 42.4041 17.0161 41.9669 17.3858 41.8658C19.8213 41.1829 19.4444 39.3585 19.3176 37.5304C19.2517 36.8308 19.4213 36.1292 19.7996 35.5362C21.416 33.4408 23.1557 31.4393 24.6707 29.1777C24.3697 29.3414 24.0846 29.5325 23.819 29.7486C22.3692 31.125 20.8941 32.4581 19.5568 33.9249C17.2553 36.4538 14.5878 38.0976 10.9672 37.805C10.9672 37.9531 10.9672 38.0976 10.9925 38.2458L14.2327 38.7913C9.92336 42.4293 5.89675 46.0168 0 46.7863L7.87563 37.7544L1.88102 34.5029C3.73666 33.1482 5.3531 32.1836 6.70497 30.9372C10.5975 27.3244 14.4066 23.6466 18.2013 19.9471C20.789 17.4182 23.355 14.8712 25.8123 12.223C26.9467 11.0019 27.8274 9.53875 28.7589 8.14422C29.5272 6.99537 30.089 5.68755 30.9552 4.62901C31.7478 3.64625 32.7041 2.8067 33.7822 2.14705C36.8193 0.340667 39.4579 1.13548 41.4295 4.16298L41.1866 0.441813C43.6077 0.29369 46.1592 -0.132611 48.6708 0.0408018C53.3824 0.369563 57.8077 1.77855 61.5262 4.83856C63.6356 6.58352 64.7048 8.75479 63.6501 11.7678Z" fill="#273037"/>
</svg>
