<svg width="60" height="47" viewBox="0 0 60 47" fill="none" xmlns="http://www.w3.org/2000/svg">
<path d="M36.7748 41.3153H27.7325L27.5865 40.953C28.2134 40.5639 28.8642 40.2141 29.5351 39.9059C31.0385 39.3153 30.9582 38.3516 30.3051 37.1921L29.1666 35.1704C26.4882 34.9059 23.9704 35.2755 21.5036 36.8552C17.0592 39.6885 12.3337 42.0871 7.86364 44.8806C5.51003 46.3516 3.02868 46.6197 0 46.7863C0.806432 46.1668 1.31729 45.7972 1.82451 45.3987C5.80923 42.1378 9.76477 38.8371 13.7896 35.6161C14.5366 35.032 15.4117 34.631 16.3439 34.4458C18.8982 33.9494 21.6204 33.9603 24.058 33.145C27.8237 31.8878 31.3888 30.0545 35.0816 28.5689C37.479 27.6016 39.2926 26.0037 40.8142 24.0001C40.9838 23.7854 41.1079 23.5389 41.1791 23.2755C33.4104 28.9675 24.7878 32.1342 14.9975 32.4059C14.9297 31.536 15.0441 30.6616 15.3336 29.8378C15.6232 29.0141 16.0815 28.2588 16.6796 27.6197C19.8652 23.9675 23.0362 20.3044 26.2729 16.6994C30.1007 12.4385 34.516 9.0508 40.2267 7.56892C40.7704 7.42761 41.2922 6.55805 41.5039 5.92037C42.7737 2.09428 45.6346 -0.528921 49.0245 0.0906448C51.8269 0.601515 54.5272 1.9711 57.0961 3.30444C58.012 3.77545 58.3951 5.25732 59.0228 6.27906L58.6031 6.69936C57.4647 6.63777 56.3225 6.59791 55.184 6.51458C53.1917 6.3624 52.2283 7.10515 52.1188 9.10877C52.0476 10.3746 52.0915 11.6443 52.2502 12.9023C53.042 19.0979 50.6118 24.1559 46.0907 28.0255C43.4853 30.2501 40.1245 31.6487 37.001 33.2103C35.9318 33.7501 34.9466 34.1088 34.5416 35.3371C34.3583 35.7846 34.0936 36.1949 33.7607 36.5472C32.0128 38.6378 32.115 38.9856 34.724 39.953C35.4538 40.2284 36.1836 40.5834 36.9134 40.8987L36.7748 41.3153Z" fill="#273037"/>
</svg>
