<svg width="49" height="42" viewBox="0 0 49 42" fill="none" xmlns="http://www.w3.org/2000/svg">
<path d="M0 26.3364L5.71326 25.7033C10.02 31.4557 13.4291 33.7277 18.5172 33.9593C17.834 33.6879 17.4487 33.5251 17.0635 33.3804C16.6092 33.2176 16.1367 33.0946 15.6897 32.9173C7.88663 29.8457 4.69926 21.8104 8.38817 14.5348C9.74744 11.854 10.3507 11.5501 13.3382 11.7491C22.3515 12.3496 30.4017 15.5153 37.6887 20.7431C38.1721 21.1049 38.6809 21.4088 39.1824 21.7344C39.2151 21.7561 39.2878 21.7091 39.5822 21.6259C38.7935 19.817 37.9685 18.008 37.2489 16.1991C36.344 13.909 35.3372 11.6297 34.7048 9.25996C33.8653 6.1124 35.3409 2.4258 37.7287 0.917139C39.8839 -0.446804 43.1548 -0.273184 45.4554 1.32954C46.7285 2.17168 47.6174 3.47899 47.9296 4.96858C48.2418 6.45817 47.9522 8.01022 47.1236 9.28889C48.6282 10.4032 49.0244 13.0009 47.7959 14.0464C45.4845 11.5356 44.4886 7.79471 40.3018 6.40182C40.5126 7.65 40.4726 8.78601 40.9088 9.70134C41.7656 11.358 42.717 12.9646 43.7581 14.5131C44.8811 16.3004 46.2004 17.9791 47.1708 19.8387C50.8924 26.9731 48.6573 34.7299 41.443 38.3442C32.6369 42.7544 23.4491 43.0836 14.8247 38.1235C9.90009 35.2907 5.68418 31.2495 1.16663 27.7148C0.732611 27.2952 0.341805 26.8334 0 26.3364Z" fill="#273037"/>
</svg>
