<svg width="47" height="47" viewBox="0 0 47 47" fill="none" xmlns="http://www.w3.org/2000/svg">
<path d="M0 46.7863C2.13816 43.685 3.97138 40.9153 5.94981 38.2513C6.34913 37.7083 7.25666 37.4605 7.98269 37.2564C14.8074 35.3504 21.1855 32.5624 26.6634 27.9414C27.1431 27.5857 27.5191 27.1075 27.7524 26.5566C27.3894 26.7935 26.9865 27.0158 26.6271 27.2855C21.004 31.3453 14.742 33.9983 8.04805 35.6237C6.959 35.8897 5.73926 35.6638 4.58124 35.6638L4.21823 34.8839C4.92627 34.4337 5.59865 33.9293 6.22934 33.3751C11.4459 28.0908 15.8637 22.1943 19.8279 15.9151C22.4379 11.7787 25.2731 7.78089 28.1118 3.79034C29.7055 1.54178 31.742 -0.284013 34.726 0.0366896C36.0909 0.182463 37.8697 0.630728 38.6102 1.59648C40.2619 3.74664 42.5018 4.24956 44.8069 4.87639C45.1445 4.9675 45.4748 5.10596 46.0666 5.31369C45.3187 5.56515 44.8105 5.71821 44.3132 5.90043C42.97 6.38512 40.9589 6.49809 40.4326 7.44562C39.1803 9.64085 38.385 12.0684 38.0947 14.5812C37.7317 18.2256 37.4667 21.8298 35.7932 25.1498C34.0508 28.6083 31.4371 31.1922 28.1046 33.1674C26.7515 34.0164 25.4994 35.0178 24.3728 36.1521C23.2838 37.1944 23.625 38.3387 25.0117 38.889C26.1334 39.3264 27.2587 39.7564 28.3841 40.19L28.2498 40.7039H18.6916C19.5846 40.0333 20.0674 39.5377 20.6483 39.2462C21.7373 38.7396 22.0422 37.9561 21.6901 36.8956C21.338 35.8351 20.5466 35.8897 19.5374 35.8241C15.7766 35.58 14.1176 37.4568 13.8308 40.9699C13.6566 43.0764 12.5385 44.0275 10.4403 44.3993C7.05338 44.9897 3.74631 45.9081 0 46.7863Z" fill="#273037"/>
</svg>
