<svg width="43" height="61" viewBox="0 0 43 61" fill="none" xmlns="http://www.w3.org/2000/svg">
<path d="M18.7466 47.27C19.8037 46.8048 20.879 46.3724 21.9181 45.8709C23.6341 45.0423 22.7725 43.4904 22.4068 42.5528C22.2874 42.308 22.1132 42.0942 21.8977 41.9282C21.6823 41.7622 21.4315 41.6486 21.165 41.5961C20.8985 41.5437 20.6235 41.5539 20.3616 41.6259C20.0997 41.6979 19.858 41.8298 19.6553 42.0113C17.588 43.6503 15.4158 45.1258 14.0871 47.5971C12.3456 50.8425 10.177 53.8626 8.45369 57.1152C7.40014 59.1031 5.85784 59.979 3.38509 60.4623C5.55735 56.6246 6.17644 52.467 9.36242 49.2943C15.4592 43.2688 21.2229 36.9052 27.1025 30.6688C27.5415 30.1854 27.8964 29.6313 28.1524 29.0298C19.1267 38.1663 10.5173 47.728 0 55.2763C0.409108 54.7057 0.829079 54.1424 1.22371 53.5609C2.67188 51.464 4.12004 49.3779 5.4958 47.2555C8.97503 41.9495 11.5817 36.3782 12.4362 29.9165C13.1617 24.1154 15.3005 18.5833 18.6633 13.8096C20.4337 11.3165 22.4611 9.13957 25.2344 7.69678C25.8607 7.37333 26.2698 6.45389 26.5812 5.72341C28.3552 1.57674 31.0741 -0.316702 34.8647 0.0430877C35.1672 0.0341726 35.4688 0.0797121 35.7553 0.177553C36.5482 0.580954 37.504 0.882578 38.0543 1.5222C39.6147 3.33932 41.0086 5.29454 42.4676 7.19525L42.1056 7.55867C41.8232 7.50416 41.5444 7.4424 41.262 7.39879C37.4533 6.7846 35.3281 9.14687 36.2441 12.9556C37.1222 16.583 36.7994 20.3987 35.3245 23.8255C33.7585 27.422 31.9763 30.9198 29.988 34.2994C28.4674 36.9415 26.5812 39.3874 24.8615 41.895C23.9238 43.2615 24.6479 45.373 26.2191 45.8454C27.7904 46.3179 29.3327 46.7576 30.8895 47.2155C30.9365 47.2155 30.9655 47.2991 31.1284 47.4881H18.819L18.7466 47.27Z" fill="#273037"/>
</svg>
