<svg width="35" height="54" viewBox="0 0 35 54" fill="none" xmlns="http://www.w3.org/2000/svg">
<path d="M20.7343 40.8992H34.5499V43.4309H19.8753C20.4564 47.203 20.958 50.505 21.503 53.9842H11.181C11.6935 50.675 12.1952 47.4309 12.704 44.1506H0V40.118H12.852C17.8615 27.6587 18.8431 23.4128 17.7315 18.2916C17.6629 19.5068 17.6268 20.7256 17.515 21.9372C16.9844 27.7672 14.7359 32.9896 11.7765 37.9444C11.5238 38.3676 10.9031 38.5701 10.4556 38.8739C10.2354 38.3893 9.84203 37.9119 9.82038 37.4272C9.48473 29.4706 10.0514 21.6732 12.935 14.1433C13.3898 12.9571 13.2562 11.5357 13.3609 10.2229C13.6532 6.67497 15.0824 3.71294 17.9661 1.58636C18.9975 0.789441 20.2157 0.271177 21.5042 0.0812032C22.7927 -0.108771 24.1083 0.0359058 25.325 0.501364C28.9774 1.7708 31.4244 7.15598 29.7679 10.1325L27.6962 7.63699C25.0833 9.77081 24.5238 12.4616 25.8592 15.2319C27.7792 19.2283 27.5916 23.4526 26.8373 27.6298C26.4111 30.0004 25.6921 32.3087 24.6971 34.5014C23.7407 36.5846 22.2754 38.4544 20.7343 40.8992Z" fill="#273037"/>
</svg>
