<svg width="66" height="48" viewBox="0 0 66 48" fill="none" xmlns="http://www.w3.org/2000/svg">
<path d="M0 30.1034L0.297037 28.4915H5.27091C4.83982 26.5289 2.10834 25.6868 2.77491 22.7773C6.278 26.3916 9.21235 30.0854 14.2478 30.9853C12.7118 26.7349 12.5524 22.4014 13.2987 18.0246C13.9906 13.9657 15.5628 10.4346 19.305 8.1829C19.7578 7.91183 20.0295 7.28294 20.3049 6.78056C21.0982 5.371 21.6923 3.81687 22.6668 2.54827C23.3779 1.5566 24.3708 0.80053 25.5171 0.377853C26.6634 -0.0448251 27.9105 -0.114673 29.097 0.177308C31.4771 0.679691 33.0819 2.06757 33.5058 4.6084C33.5818 5.05657 34.0709 5.48667 34.4585 5.82279C35.2736 6.52396 36.1467 7.15284 37.3095 8.05641C35.8605 8.05641 34.7519 8.13231 33.6651 8.03834C32.4842 7.93353 31.9118 8.37807 32.064 9.54187C32.1618 10.2936 32.2487 11.1394 32.6399 11.7502C34.4803 14.6163 34.5817 17.6306 33.6507 20.7859C32.3972 25.0218 29.7636 28.3505 26.6155 31.3287C26.1373 31.7805 25.641 32.2178 24.931 32.8683H44.9207C44.5295 32.3298 44.2397 31.9142 43.9317 31.5094C41.1327 27.9102 39.6214 23.48 39.6389 18.9245C39.6255 16.2481 40.5609 13.6532 42.2798 11.5984C42.7471 11.0201 42.921 10.2033 43.3376 9.24911L39.5846 8.59855C39.9963 8.27858 40.4323 7.99098 40.8887 7.73835C42.1965 7.14561 43.0623 6.37215 43.468 4.8144C44.1636 2.21574 47.308 1.07363 50.2242 2.08563C53.2238 3.12292 54.6837 5.45413 55.2669 8.39253C55.4854 9.66756 56.1136 10.8371 57.0565 11.7249C59.8097 14.4392 60.2553 17.9739 59.7989 21.6207C59.3098 25.5025 57.6506 28.9469 55.0641 32.4419L63.8562 30.0203C64.3815 31.4227 64.8959 32.8033 65.5009 34.4261L52.242 37.8235C52.55 40.9968 52.8615 44.1918 53.1839 47.5061H45.609C45.9713 44.134 46.2973 40.8234 46.6559 37.3862C38.0522 35.8826 29.4955 36.4067 20.8519 36.0634C20.3411 39.3162 19.8593 42.3739 19.363 45.5219L10.2122 45.999L14.5159 36.3055C12.7917 36.4554 11.1141 36.9438 9.57978 37.7427C8.04541 38.5416 6.68451 39.6352 5.57524 40.9607L5.01372 40.7439C5.08617 40.2306 5.01373 39.6198 5.25282 39.215C6.66203 36.9525 8.54942 35.2791 11.2229 34.6104C11.8459 34.4029 12.4516 34.1467 13.0342 33.8442C9.33915 30.3095 4.55728 30.7504 0 30.1034Z" fill="#273037"/>
</svg>
