<svg width="44" height="44" viewBox="0 0 44 44" fill="none" xmlns="http://www.w3.org/2000/svg">
<path d="M0 42.5399C4.58912 39.2476 9.13441 35.9187 13.8149 32.7838C14.425 32.3777 15.7477 33.0362 16.8073 33.2118C10.1867 24.3629 5.22854 14.6031 2.30188 3.27401C10.8042 8.09537 17.3736 14.3141 22.9858 21.7546C22.372 20.5731 21.8092 19.3623 21.1333 18.2136C20.4574 17.065 19.5257 15.9127 18.8717 14.6799C18.4442 13.8751 17.9947 12.8838 18.0824 12.0278C18.4819 8.00633 19.0726 3.99707 19.8545 0C24.323 5.85294 26.8222 12.4595 28.5578 19.5927C31.3236 17.2918 33.8447 17.5588 36.5047 19.4683C37.2975 20.0426 38.6019 19.8817 39.6579 20.1195C41.1378 20.3977 42.5694 20.8906 43.9072 21.5827C42.1863 21.5827 40.4617 21.6486 38.7444 21.5608C38.0455 21.4949 37.3413 21.6088 36.6987 21.8918C36.0561 22.1747 35.4962 22.6173 35.0724 23.1776C33.5415 25.1347 31.784 26.993 30.6331 29.1586C28.1522 33.7751 24.5678 36.8955 19.5439 38.2672C16.6209 39.0684 13.6212 39.5915 10.6763 40.3304C8.97726 40.7547 7.33311 41.3913 5.64142 41.8558C3.85473 42.346 2.0388 42.7448 0.233846 43.1874L0 42.5399Z" fill="#273037"/>
</svg>
