<svg width="94" height="71" viewBox="0 0 94 71" fill="none" xmlns="http://www.w3.org/2000/svg">
<g clip-path="url(#clip0_362_367)">
<path d="M94.0001 36.1045C93.4114 37.4053 92.8503 38.7244 92.2294 40.0045C87.9568 48.6784 81.6513 55.3634 72.8715 59.5639C68.2883 61.7928 63.2529 62.9411 58.1542 62.9202C57.75 62.909 57.3481 62.9853 56.9761 63.1437C56.6042 63.3021 56.271 63.5389 55.9995 63.8378C52.2903 67.4923 47.8452 69.8025 42.7562 70.8922C42.4963 70.9473 42.225 70.961 41.9077 71C41.5029 67.5589 41.3581 64.1797 41.7835 60.8005C41.8916 59.9356 41.7191 59.5272 40.882 59.1556C33.6269 55.9439 27.4433 51.1951 21.7955 45.7076C21.0045 44.9414 20.2387 44.1499 19.4591 43.3699C19.3864 43.3164 19.3095 43.2689 19.2292 43.2277C14.0252 48.5431 8.1245 52.4316 0.0874603 51.9315C-0.34946 45.9232 1.36833 40.6606 4.8131 36.0586C3.75989 34.1132 2.6331 32.294 1.76845 30.3601C0.427799 27.3663 -0.0712107 24.166 0.00927466 20.89C0.0299709 20.1192 0.239233 19.7912 1.11307 19.7705C5.96979 19.6581 10.247 21.2846 14.0965 24.0903C15.9155 25.4163 17.5689 26.9717 19.5764 28.6579C19.717 28.3504 19.8963 28.0621 20.1099 27.7999C24.6171 23.1887 29.4738 18.9997 34.9928 15.6412C35.2619 15.4783 35.4527 14.9529 35.4527 14.618C35.279 9.78383 34.2554 5.0177 32.4288 0.536818C32.3851 0.428995 32.3667 0.307409 32.2839 0C34.4754 0.22941 36.568 0.392291 38.6423 0.688229C43.6829 1.40169 48.6178 2.56251 53.2423 4.74878C54.9887 5.55412 56.6601 6.51221 58.237 7.61181C59.3526 8.44058 60.6711 8.95483 62.0543 9.10068C69.4474 9.93573 75.884 13.0006 81.5065 17.7907C87.0071 22.4867 91.0221 28.2541 93.6482 34.9964C93.7471 35.2511 93.8782 35.4897 94.0001 35.7374V36.1045Z" fill="#273037"/>
</g>
<defs>
<clipPath id="clip0_362_367">
<rect width="94" height="71" fill="white"/>
</clipPath>
</defs>
</svg>
